<svg xmlns="http://www.w3.org/2000/svg" xmlns:xlink="http://www.w3.org/1999/xlink" viewBox="0 0 861.57 78.39"><defs><style>.cls-1{fill:#3957a7;}.cls-2,.cls-8{fill:#fff;}.cls-3{fill:#f9a533;}.cls-4{fill:#0c489c;}.cls-5{fill:#13457c;}.cls-6{fill:#fbb231;}.cls-6,.cls-7,.cls-8{fill-rule:evenodd;}.cls-7{fill:#ec1c2e;}.cls-9{fill:none;stroke:#fff;stroke-miterlimit:2.61;stroke-width:0.22px;}.cls-10{fill:#084d95;}.cls-11{fill:#0078a9;}.cls-12{fill:#f1f2f2;}.cls-13{fill:#f58220;}.cls-14{fill:url(#radial-gradient);}.cls-15{fill:#001722;}.cls-16{fill:#231f20;}</style><radialGradient id="radial-gradient" cx="646.73" cy="-446.88" r="6.18" gradientTransform="translate(6.42 486.08)" gradientUnits="userSpaceOnUse"><stop offset="0.01" stop-color="#ffeee0"/><stop offset="0.11" stop-color="#fee9d7"/><stop offset="0.28" stop-color="#fddbbf"/><stop offset="0.49" stop-color="#fbc597"/><stop offset="0.74" stop-color="#f8a560"/><stop offset="1" stop-color="#f48120"/></radialGradient></defs><title>credit-cards</title><g id="Layer_2" data-name="Layer 2"><g id="Layer_1-2" data-name="Layer 1"><rect class="cls-1" width="125.43" height="78.39" rx="4.18"/><polygon class="cls-2" points="57.72 50.97 51.59 50.97 55.42 27.44 61.55 27.44 57.72 50.97"/><path class="cls-2" d="M46.44,27.44,40.6,43.63l-.69-3.49h0L37.85,29.56a2.63,2.63,0,0,0-2.91-2.12H25.28l-.11.4a22.81,22.81,0,0,1,6.41,2.69L36.9,51h6.39L53,27.44Z"/><path class="cls-2" d="M94.63,51h5.63l-4.9-23.53H90.43a2.81,2.81,0,0,0-2.83,1.75L78.46,51h6.39l1.27-3.49h7.8Zm-6.74-8.32,3.22-8.81,1.81,8.81Z"/><path class="cls-2" d="M78.94,33.1,79.81,28a17.71,17.71,0,0,0-5.51-1C71.26,27,64,28.35,64,34.81c0,6.08,8.48,6.16,8.48,9.35s-7.6,2.62-10.11.61l-.91,5.28a17.11,17.11,0,0,0,6.91,1.33c4.18,0,10.49-2.17,10.49-8.06,0-6.12-8.55-6.69-8.55-9.35S76.32,31.65,78.94,33.1Z"/><path class="cls-3" d="M39.91,40.14,37.85,29.56a2.63,2.63,0,0,0-2.91-2.12H25.28l-.11.4a23.73,23.73,0,0,1,9.09,4.56A18.39,18.39,0,0,1,39.91,40.14Z"/><rect class="cls-4" x="441.68" width="125.43" height="78.39" rx="4.18"/><path class="cls-2" d="M526.23,41.86c.16,4.57.31,9.29.08,13.93a6.29,6.29,0,0,1-3,4.65,9,9,0,0,1-4.57,1l-6-.08,0-38.76a6.55,6.55,0,0,1,4.65-5.48,85.24,85.24,0,0,1,8.83-.31l.15,2v22l-.08.08Z"/><path class="cls-2" d="M482.37,40.41V22.13a6.67,6.67,0,0,1,4-4.72c3-.91,6.4-.37,9.44-.45.15,3,0,6.7.08,9.29l.15,23.83c-.38,3.66,1,8.61-3.58,10.66-2.89,1.45-6.78.54-10.05.84l-.08-.53V40.41Z"/><path class="cls-2" d="M511.08,19.47l.08,37.08a6.76,6.76,0,0,1-3.81,4.34c-2.89,1-6.47.54-9.67.54l-.15-39.07a6,6,0,0,1,3-4.41,7.74,7.74,0,0,1,4-1.07h6.47Z"/><path class="cls-4" d="M482.37,41.17a6.62,6.62,0,0,0,4.95,2.89c2.52.24,5.79.46,7.46-1.9,1.15-1.22.46-2.89.69-4.49l-.08-2.89c-1.44-.31-2.74,0-4.41-.08-.84,3.12,1.37,6.62-2.21,8.22a4,4,0,0,1-2.9-.45c-1.37-.31-.6-2.52-2.43-1.91l-1.07-.15Z"/><path class="cls-4" d="M510.47,34.78a8.35,8.35,0,0,1,.08,1.37c-2.28-.61-5.11-1.3-7.16.38a3.79,3.79,0,0,0,1.22,6.24c2,.61,4,.08,5.86-.38a2.2,2.2,0,0,1,0,1.22h-8.76a4.52,4.52,0,0,1-3.42-2.67,4.67,4.67,0,0,1,.76-4.64,4.42,4.42,0,0,1,3.65-1.6Z"/><path class="cls-4" d="M526.23,41.86a2.54,2.54,0,0,1-1.9,1.9H513.67l-.38-.15c0-3-.08-5.94.07-8.91h6.78c2.13.23,4.49-.69,5.48,1.29a2,2,0,0,1-.3,2.14c-.3.53-1,.61-1.14,1a3.1,3.1,0,0,1,2.05,1.75Zm-9.13-6.25a7.41,7.41,0,0,0-.08,2.9c1.6-.08,3.66.53,4.72-.69a1.51,1.51,0,0,0-.08-1.6C520.45,35.16,518.62,35.84,517.1,35.61Zm4.11,4.19a20.42,20.42,0,0,0-4.27-.08,14,14,0,0,0,.16,3.13c1.52,0,3.19.22,4.56-.46a1.63,1.63,0,0,0,.46-1.52A1.61,1.61,0,0,0,521.21,39.8Z"/><rect class="cls-5" x="147.23" width="125.43" height="78.39" rx="4.18"/><polygon class="cls-6" points="224.99 61.7 226.16 61.67 227.3 61.59 228.43 61.44 229.54 61.24 230.63 60.99 231.7 60.69 232.75 60.34 233.77 59.93 234.77 59.48 235.74 58.98 236.69 58.44 237.6 57.85 238.48 57.22 239.33 56.55 240.15 55.85 240.94 55.1 241.69 54.31 242.39 53.49 243.06 52.65 243.69 51.77 244.28 50.85 244.82 49.9 245.31 48.93 245.77 47.93 246.17 46.91 246.53 45.86 246.83 44.79 247.08 43.7 247.28 42.59 247.43 41.46 247.51 40.32 247.54 39.16 247.51 38 247.43 36.86 247.28 35.74 247.08 34.64 246.83 33.55 246.53 32.49 246.17 31.45 245.77 30.43 245.31 29.43 244.82 28.46 244.28 27.53 243.69 26.61 243.06 25.73 242.39 24.89 241.69 24.07 240.94 23.28 240.15 22.54 239.33 21.84 238.48 21.17 237.6 20.54 236.69 19.95 235.74 19.41 234.77 18.92 233.77 18.46 232.75 18.06 231.7 17.7 230.63 17.4 229.54 17.15 228.43 16.95 227.3 16.81 226.16 16.73 224.99 16.7 223.84 16.73 222.69 16.81 221.57 16.95 220.46 17.15 219.38 17.4 218.31 17.7 217.27 18.06 216.24 18.46 215.25 18.92 214.28 19.41 213.34 19.95 212.43 20.54 211.55 21.17 210.7 21.84 209.89 22.54 209.11 23.28 208.36 24.07 207.66 24.89 206.99 25.73 206.37 26.61 205.78 27.53 205.24 28.46 204.74 29.43 204.29 30.43 203.89 31.45 203.54 32.49 203.24 33.55 202.99 34.64 202.79 35.74 202.65 36.86 202.56 38 202.53 39.16 202.56 40.32 202.65 41.46 202.79 42.59 202.99 43.7 203.24 44.79 203.54 45.86 203.89 46.91 204.29 47.93 204.74 48.93 205.24 49.9 205.78 50.85 206.37 51.77 206.99 52.65 207.66 53.49 208.36 54.31 209.11 55.1 209.89 55.85 210.7 56.55 211.55 57.22 212.43 57.85 213.34 58.44 214.28 58.98 215.25 59.48 216.24 59.93 217.27 60.34 218.31 60.69 219.38 60.99 220.46 61.24 221.57 61.44 222.69 61.59 223.84 61.67 224.99 61.7 224.99 61.7 224.99 61.7"/><polygon class="cls-7" points="194.89 61.7 196.04 61.67 197.19 61.59 198.31 61.44 199.42 61.24 200.51 60.99 201.58 60.69 202.62 60.34 203.64 59.93 204.64 59.48 205.6 58.98 206.54 58.44 207.45 57.85 208.33 57.22 209.18 56.55 210 55.85 210.78 55.1 211.52 54.31 212.23 53.49 212.89 52.65 213.52 51.77 214.1 50.85 214.64 49.9 215.14 48.93 215.59 47.93 215.99 46.91 216.34 45.86 216.64 44.79 216.9 43.7 217.09 42.59 217.24 41.46 217.32 40.32 217.35 39.16 217.32 38 217.24 36.86 217.09 35.74 216.9 34.64 216.64 33.55 216.34 32.49 215.99 31.45 215.59 30.43 215.14 29.43 214.64 28.46 214.1 27.53 213.52 26.61 212.89 25.73 212.23 24.89 211.52 24.07 210.78 23.28 210 22.54 209.18 21.84 208.33 21.17 207.45 20.54 206.54 19.95 205.6 19.41 204.64 18.92 203.64 18.46 202.62 18.06 201.58 17.7 200.51 17.4 199.42 17.15 198.31 16.95 197.19 16.81 196.04 16.73 194.89 16.7 193.73 16.73 192.58 16.81 191.46 16.95 190.34 17.15 189.26 17.4 188.19 17.7 187.14 18.06 186.12 18.46 185.11 18.92 184.14 19.41 183.2 19.95 182.28 20.54 181.4 21.17 180.55 21.84 179.73 22.54 178.95 23.28 178.2 24.07 177.49 24.89 176.82 25.73 176.19 26.61 175.61 27.53 175.06 28.46 174.57 29.43 174.11 30.43 173.71 31.45 173.35 32.49 173.05 33.55 172.8 34.64 172.6 35.74 172.46 36.86 172.38 38 172.35 39.16 172.38 40.32 172.46 41.46 172.6 42.59 172.8 43.7 173.05 44.79 173.35 45.86 173.71 46.91 174.11 47.93 174.57 48.93 175.06 49.9 175.61 50.85 176.19 51.77 176.82 52.65 177.49 53.49 178.2 54.31 178.95 55.1 179.73 55.85 180.55 56.55 181.4 57.22 182.28 57.85 183.2 58.44 184.14 58.98 185.11 59.48 186.12 59.93 187.14 60.34 188.19 60.69 189.26 60.99 190.34 61.24 191.46 61.44 192.58 61.59 193.73 61.67 194.89 61.7 194.89 61.7 194.89 61.7"/><polygon class="cls-6" points="207.31 25.33 219.26 25.33 219.26 24.1 208.34 24.1 207.31 25.33 207.31 25.33 207.31 25.33"/><polygon class="cls-6" points="205.52 28.04 219.26 28.04 219.26 26.82 206.24 26.82 205.52 28.04 205.52 28.04 205.52 28.04"/><polygon class="cls-6" points="204.18 30.75 219.26 30.75 219.26 29.53 204.71 29.53 204.18 30.75 204.18 30.75 204.18 30.75"/><polygon class="cls-6" points="203.26 33.47 219.26 33.47 219.26 32.25 203.64 32.25 203.26 33.47 203.26 33.47 203.26 33.47"/><polygon class="cls-6" points="203.79 46.6 219.3 46.6 219.3 45.38 203.41 45.38 203.79 46.6 203.79 46.6 203.79 46.6"/><polygon class="cls-6" points="204.94 49.32 219.3 49.32 219.3 48.1 204.37 48.1 204.94 49.32 204.94 49.32 204.94 49.32"/><polygon class="cls-6" points="206.55 52.03 219.3 52.03 219.3 50.81 205.78 50.81 206.55 52.03 206.55 52.03 206.55 52.03"/><polygon class="cls-6" points="208.76 54.75 219.3 54.75 219.3 53.52 207.69 53.52 208.76 54.75 208.76 54.75 208.76 54.75"/><polygon class="cls-6" points="202.72 36.18 219.26 36.18 219.26 34.96 202.96 34.96 202.72 36.18 202.72 36.18 202.72 36.18"/><polygon class="cls-6" points="212.81 43.89 219.11 43.89 219.11 42.67 213.03 42.67 212.81 43.89 212.81 43.89 212.81 43.89"/><polygon class="cls-6" points="213.31 41.18 219.11 41.18 219.11 39.95 213.53 39.95 213.31 41.18 213.31 41.18 213.31 41.18"/><polygon class="cls-6" points="202.31 39.95 203.94 39.95 203.94 41.18 202.38 41.18 202.31 39.95 202.31 39.95 202.31 39.95"/><polygon class="cls-8" points="199.25 38.47 199.14 38.47 199.03 38.45 198.94 38.44 198.84 38.42 198.75 38.41 198.65 38.39 198.55 38.38 198.44 38.36 198.34 38.34 198.22 38.34 198.08 38.33 197.94 38.32 197.78 38.32 197.6 38.33 197.4 38.34 197.18 38.36 197.03 38.38 196.89 38.41 196.76 38.45 196.64 38.49 196.54 38.55 196.44 38.61 196.36 38.69 196.29 38.75 196.25 38.84 196.21 38.92 196.19 39.01 196.19 39.1 196.22 39.2 196.25 39.3 196.31 39.4 196.38 39.5 196.54 39.64 196.72 39.76 196.93 39.85 197.16 39.94 197.4 40.01 197.65 40.1 197.9 40.19 198.15 40.29 198.38 40.42 198.59 40.58 198.78 40.77 198.94 41 199.06 41.29 199.13 41.63 199.16 42.04 199.13 42.52 199.08 42.88 198.99 43.19 198.87 43.48 198.72 43.73 198.54 43.95 198.34 44.14 198.13 44.3 197.9 44.45 197.65 44.56 197.4 44.66 197.14 44.74 196.88 44.8 196.62 44.84 196.37 44.87 196.12 44.88 195.88 44.89 195.56 44.89 195.25 44.88 194.99 44.88 194.74 44.87 194.51 44.87 194.31 44.85 194.12 44.83 193.95 44.81 193.79 44.8 193.64 44.77 193.5 44.74 193.37 44.71 193.24 44.67 193.12 44.63 193 44.58 192.87 44.54 193.21 42.86 193.28 42.88 193.37 42.9 193.47 42.93 193.6 42.96 193.74 42.99 193.89 43.02 194.06 43.06 194.24 43.09 194.43 43.12 194.62 43.15 194.83 43.17 195.04 43.2 195.26 43.2 195.48 43.21 195.7 43.21 195.92 43.2 196.14 43.16 196.32 43.09 196.46 43.01 196.56 42.91 196.63 42.8 196.69 42.68 196.73 42.56 196.76 42.44 196.78 42.22 196.71 42.03 196.58 41.88 196.39 41.75 196.17 41.64 195.9 41.52 195.6 41.42 195.31 41.3 195 41.16 194.72 41 194.45 40.8 194.21 40.57 194.01 40.28 193.88 39.94 193.81 39.53 193.82 39.04 193.86 38.75 193.91 38.47 193.99 38.21 194.08 37.97 194.2 37.74 194.34 37.54 194.5 37.35 194.69 37.18 194.91 37.04 195.15 36.92 195.42 36.8 195.73 36.72 196.07 36.65 196.44 36.6 196.85 36.57 197.3 36.56 197.58 36.56 197.83 36.57 198.07 36.58 198.28 36.58 198.47 36.6 198.65 36.61 198.8 36.63 198.94 36.64 199.06 36.66 199.17 36.68 199.27 36.7 199.36 36.71 199.44 36.73 199.51 36.74 199.57 36.75 199.63 36.76 199.25 38.47 199.25 38.47 199.25 38.47"/><polyline class="cls-9" points="199.25 38.47 199.25 38.47 199.14 38.47 199.03 38.45 198.94 38.44 198.84 38.42 198.75 38.41 198.65 38.39 198.55 38.38 198.44 38.36 198.34 38.34 198.22 38.34 198.08 38.33 197.94 38.32 197.78 38.32 197.6 38.33 197.4 38.34 197.18 38.36 197.18 38.36 197.03 38.38 196.89 38.41 196.76 38.45 196.64 38.49 196.54 38.55 196.44 38.61 196.36 38.69 196.29 38.75 196.25 38.84 196.21 38.92 196.19 39.01 196.19 39.1 196.22 39.2 196.25 39.3 196.31 39.4 196.38 39.5 196.38 39.5 196.54 39.64 196.72 39.76 196.93 39.85 197.16 39.94 197.4 40.01 197.65 40.1 197.9 40.19 198.15 40.29 198.38 40.42 198.59 40.58 198.78 40.77 198.94 41 199.06 41.29 199.13 41.63 199.16 42.04 199.13 42.52 199.13 42.52 199.08 42.88 198.99 43.19 198.87 43.48 198.72 43.73 198.54 43.95 198.34 44.14 198.13 44.3 197.9 44.45 197.65 44.56 197.4 44.66 197.14 44.74 196.88 44.8 196.62 44.84 196.37 44.87 196.12 44.88 195.88 44.89 195.88 44.89 195.56 44.89 195.25 44.88 194.99 44.88 194.74 44.87 194.51 44.87 194.31 44.85 194.12 44.83 193.95 44.81 193.79 44.8 193.64 44.77 193.5 44.74 193.37 44.71 193.24 44.67 193.12 44.63 193 44.58 192.87 44.54 193.21 42.86 193.21 42.86 193.28 42.88 193.37 42.9 193.47 42.93 193.6 42.96 193.74 42.99 193.89 43.02 194.06 43.06 194.24 43.09 194.43 43.12 194.62 43.15 194.83 43.17 195.04 43.2 195.26 43.2 195.48 43.21 195.7 43.21 195.92 43.2 195.92 43.2 196.14 43.16 196.32 43.09 196.46 43.01 196.56 42.91 196.63 42.8 196.69 42.68 196.73 42.56 196.76 42.44 196.76 42.44 196.78 42.22 196.71 42.03 196.58 41.88 196.39 41.75 196.17 41.64 195.9 41.52 195.6 41.42 195.31 41.3 195 41.16 194.72 41 194.45 40.8 194.21 40.57 194.01 40.28 193.88 39.94 193.81 39.53 193.82 39.04 193.82 39.04 193.86 38.75 193.91 38.47 193.99 38.21 194.08 37.97 194.2 37.74 194.34 37.54 194.5 37.35 194.69 37.18 194.91 37.04 195.15 36.92 195.42 36.8 195.73 36.72 196.07 36.65 196.44 36.6 196.85 36.57 197.3 36.56 197.3 36.56 197.58 36.56 197.83 36.57 198.07 36.58 198.28 36.58 198.47 36.6 198.65 36.61 198.8 36.63 198.94 36.64 199.06 36.66 199.17 36.68 199.27 36.7 199.36 36.71 199.44 36.73 199.51 36.74 199.57 36.75 199.63 36.76 199.25 38.47"/><polygon class="cls-8" points="201.05 34.88 203.15 34.88 202.84 36.72 204.1 36.72 203.83 38.44 202.5 38.4 201.77 42.63 201.76 42.78 201.8 42.91 201.87 43.01 201.97 43.09 202.11 43.15 202.26 43.2 202.43 43.22 202.61 43.24 202.78 43.23 202.93 43.22 203.06 43.2 203.19 43.16 203.28 43.13 203.35 43.11 203.4 43.09 203.41 43.09 203.15 44.5 203.1 44.54 203.04 44.57 202.99 44.6 202.94 44.63 202.88 44.65 202.82 44.67 202.75 44.7 202.69 44.72 202.61 44.74 202.53 44.76 202.44 44.77 202.35 44.79 202.25 44.8 202.14 44.82 202.02 44.83 201.89 44.85 201.31 44.85 201.01 44.83 200.74 44.8 200.5 44.75 200.29 44.7 200.12 44.63 199.98 44.55 199.85 44.46 199.75 44.36 199.67 44.26 199.62 44.13 199.58 44 199.56 43.85 199.55 43.7 199.55 43.53 199.57 43.35 199.6 43.16 201.05 34.88 201.05 34.88 201.05 34.88"/><polyline class="cls-9" points="201.05 34.88 203.15 34.88 202.84 36.72 204.1 36.72 203.83 38.44 202.5 38.4 201.77 42.63 201.77 42.63 201.76 42.78 201.8 42.91 201.87 43.01 201.97 43.09 202.11 43.15 202.26 43.2 202.43 43.22 202.61 43.24 202.61 43.24 202.78 43.23 202.93 43.22 203.06 43.2 203.19 43.16 203.28 43.13 203.35 43.11 203.4 43.09 203.41 43.09 203.15 44.5 203.15 44.5 203.1 44.54 203.04 44.57 202.99 44.6 202.94 44.63 202.88 44.65 202.82 44.67 202.75 44.7 202.69 44.72 202.61 44.74 202.53 44.76 202.44 44.77 202.35 44.79 202.25 44.8 202.14 44.82 202.02 44.83 201.89 44.85 201.31 44.85 201.31 44.85 201.01 44.83 200.74 44.8 200.5 44.75 200.29 44.7 200.12 44.63 199.98 44.55 199.85 44.46 199.75 44.36 199.67 44.26 199.62 44.13 199.58 44 199.56 43.85 199.55 43.7 199.55 43.53 199.57 43.35 199.6 43.16 201.05 34.88"/><polyline class="cls-9" points="205.78 41.3 205.78 41.3 205.76 41.43 205.75 41.56 205.76 41.71 205.8 41.85 205.85 41.99 205.91 42.13 205.99 42.28 206.09 42.41 206.19 42.53 206.31 42.65 206.43 42.76 206.56 42.85 206.7 42.94 206.85 43.01 207 43.06 207.16 43.09 207.16 43.09 207.35 43.12 207.54 43.14 207.74 43.16 207.94 43.18 208.13 43.19 208.34 43.19 208.54 43.18 208.74 43.16 208.95 43.13 209.15 43.09 209.37 43.05 209.57 42.98 209.78 42.9 210 42.81 210.22 42.69 210.44 42.56 210.13 44.42 210.13 44.42 210.01 44.48 209.89 44.55 209.77 44.59 209.65 44.64 209.54 44.67 209.42 44.71 209.3 44.74 209.17 44.77 209.03 44.79 208.88 44.8 208.72 44.82 208.54 44.83 208.35 44.84 208.14 44.84 207.91 44.85 207.66 44.85 207.66 44.85 207.28 44.84 206.91 44.8 206.53 44.75 206.15 44.66 205.78 44.55 205.42 44.4 205.08 44.21 204.76 43.99 204.46 43.73 204.2 43.42 203.98 43.07 203.8 42.67 203.67 42.22 203.59 41.71 203.57 41.15 203.6 40.53 203.6 40.53 203.63 40.29 203.68 40.01 203.74 39.71 203.82 39.39 203.94 39.07 204.07 38.74 204.25 38.41 204.46 38.09 204.71 37.78 205 37.49 205.33 37.24 205.72 37.01 206.15 36.82 206.65 36.68 207.19 36.59 207.81 36.56 207.81 36.56 208.1 36.57 208.42 36.6 208.73 36.65 209.04 36.73 209.34 36.84 209.64 36.98 209.91 37.16 210.16 37.37 210.39 37.63 210.58 37.94 210.73 38.28 210.84 38.69 210.9 39.14 210.91 39.66 210.85 40.23 210.74 40.87 210.7 41.34 205.17 41.34 205.52 39.84 208.84 39.84 208.84 39.84 208.86 39.65 208.85 39.47 208.83 39.3 208.81 39.15 208.75 39.01 208.7 38.88 208.62 38.76 208.54 38.66 208.46 38.56 208.35 38.49 208.24 38.42 208.13 38.36 208.01 38.31 207.88 38.28 207.76 38.26 207.62 38.24 207.62 38.24 207.47 38.25 207.34 38.28 207.21 38.31 207.08 38.35 206.95 38.41 206.84 38.48 206.72 38.56 206.63 38.66 206.53 38.76 206.44 38.88 206.35 39 206.28 39.13 206.22 39.26 206.16 39.41 206.12 39.57 206.09 39.73 205.78 41.3"/><polygon class="cls-8" points="223.89 37.18 223.79 37.12 223.69 37.08 223.58 37.02 223.47 36.97 223.35 36.92 223.23 36.88 223.1 36.83 222.96 36.79 222.82 36.75 222.67 36.72 222.51 36.69 222.35 36.67 222.18 36.65 222 36.64 221.82 36.64 221.63 36.64 221.44 36.64 221.24 36.65 221.04 36.67 220.83 36.71 220.62 36.77 220.4 36.86 220.19 36.96 219.98 37.1 219.77 37.27 219.57 37.46 219.38 37.71 219.2 37.99 219.03 38.32 218.88 38.7 218.73 39.13 218.61 39.61 218.57 39.88 218.53 40.15 218.52 40.42 218.53 40.67 218.55 40.93 218.6 41.18 218.67 41.4 218.76 41.63 218.87 41.84 219.01 42.03 219.17 42.21 219.35 42.37 219.55 42.5 219.79 42.62 220.04 42.72 220.34 42.78 220.43 42.81 220.55 42.83 220.68 42.85 220.84 42.86 221 42.88 221.18 42.88 221.37 42.88 221.56 42.86 221.75 42.84 221.95 42.8 222.14 42.75 222.33 42.69 222.52 42.6 222.69 42.5 222.85 42.38 223.01 42.25 222.66 44.27 222.62 44.31 222.57 44.36 222.51 44.41 222.44 44.45 222.36 44.52 222.25 44.57 222.13 44.62 222 44.67 221.82 44.72 221.63 44.76 221.4 44.79 221.13 44.82 220.84 44.83 220.49 44.84 220.11 44.83 219.68 44.81 219.33 44.77 218.98 44.7 218.63 44.58 218.28 44.43 217.95 44.25 217.63 44.02 217.33 43.76 217.05 43.45 216.8 43.11 216.58 42.73 216.4 42.31 216.26 41.84 216.18 41.34 216.14 40.8 216.16 40.2 216.24 39.57 216.31 39.26 216.37 38.96 216.45 38.66 216.52 38.38 216.61 38.12 216.71 37.85 216.81 37.6 216.91 37.37 217.03 37.13 217.14 36.91 217.27 36.7 217.4 36.5 217.54 36.31 217.69 36.13 217.84 35.96 218 35.8 218.18 35.65 218.35 35.51 218.53 35.38 218.73 35.26 218.93 35.14 219.13 35.04 219.35 34.95 219.57 34.87 219.8 34.79 220.04 34.73 220.28 34.68 220.54 34.63 220.8 34.59 221.07 34.56 221.34 34.55 221.63 34.54 221.88 34.55 222.11 34.56 222.34 34.59 222.57 34.62 222.78 34.65 222.98 34.69 223.18 34.73 223.36 34.78 223.54 34.82 223.69 34.87 223.83 34.91 223.96 34.96 224.06 35 224.15 35.03 224.22 35.06 224.27 35.07 223.89 37.18 223.89 37.18 223.89 37.18"/><polyline class="cls-9" points="223.89 37.18 223.89 37.18 223.79 37.12 223.69 37.08 223.58 37.02 223.47 36.97 223.35 36.92 223.23 36.88 223.1 36.83 222.96 36.79 222.82 36.75 222.67 36.72 222.51 36.69 222.35 36.67 222.18 36.65 222 36.64 221.82 36.64 221.63 36.64 221.63 36.64 221.44 36.64 221.24 36.65 221.04 36.67 220.83 36.71 220.62 36.77 220.4 36.86 220.19 36.96 219.98 37.1 219.77 37.27 219.57 37.46 219.38 37.71 219.2 37.99 219.03 38.32 218.88 38.7 218.73 39.13 218.61 39.61 218.61 39.61 218.57 39.88 218.53 40.15 218.52 40.42 218.53 40.67 218.55 40.93 218.6 41.18 218.67 41.4 218.76 41.63 218.87 41.84 219.01 42.03 219.17 42.21 219.35 42.37 219.55 42.5 219.79 42.62 220.04 42.72 220.34 42.78 220.34 42.78 220.43 42.81 220.55 42.83 220.68 42.85 220.84 42.86 221 42.88 221.18 42.88 221.37 42.88 221.56 42.86 221.75 42.84 221.95 42.8 222.14 42.75 222.33 42.69 222.52 42.6 222.69 42.5 222.85 42.38 223.01 42.25 222.66 44.27 222.66 44.27 222.62 44.31 222.57 44.36 222.51 44.41 222.44 44.45 222.36 44.52 222.25 44.57 222.13 44.62 222 44.67 221.82 44.72 221.63 44.76 221.4 44.79 221.13 44.82 220.84 44.83 220.49 44.84 220.11 44.83 219.68 44.81 219.68 44.81 219.33 44.77 218.98 44.7 218.63 44.58 218.28 44.43 217.95 44.25 217.63 44.02 217.33 43.76 217.05 43.45 216.8 43.11 216.58 42.73 216.4 42.31 216.26 41.84 216.18 41.34 216.14 40.8 216.16 40.2 216.24 39.57 216.24 39.57 216.31 39.26 216.37 38.96 216.45 38.66 216.52 38.38 216.61 38.12 216.71 37.85 216.81 37.6 216.91 37.37 217.03 37.13 217.14 36.91 217.27 36.7 217.4 36.5 217.54 36.31 217.69 36.13 217.84 35.96 218 35.8 218.18 35.65 218.35 35.51 218.53 35.38 218.73 35.26 218.93 35.14 219.13 35.04 219.35 34.95 219.57 34.87 219.8 34.79 220.04 34.73 220.28 34.68 220.54 34.63 220.8 34.59 221.07 34.56 221.34 34.55 221.63 34.54 221.63 34.54 221.88 34.55 222.11 34.56 222.34 34.59 222.57 34.62 222.78 34.65 222.98 34.69 223.18 34.73 223.36 34.78 223.54 34.82 223.69 34.87 223.83 34.91 223.96 34.96 224.06 35 224.15 35.03 224.22 35.06 224.27 35.07 223.89 37.18"/><polygon class="cls-8" points="242.57 44.85 240.47 44.85 240.63 44.01 240.63 43.93 240.5 44.08 240.38 44.22 240.25 44.34 240.11 44.45 239.97 44.55 239.83 44.63 239.7 44.7 239.55 44.77 239.41 44.82 239.26 44.86 239.12 44.9 238.97 44.92 238.82 44.94 238.67 44.96 238.52 44.96 238.37 44.96 237.97 44.93 237.61 44.85 237.28 44.72 236.97 44.55 236.7 44.33 236.46 44.07 236.24 43.79 236.06 43.47 235.91 43.13 235.79 42.77 235.71 42.4 235.64 42.01 235.62 41.62 235.63 41.23 235.67 40.84 235.74 40.45 235.85 40.01 235.99 39.58 236.14 39.2 236.34 38.83 236.53 38.49 236.76 38.18 237 37.91 237.25 37.66 237.51 37.44 237.79 37.25 238.08 37.08 238.37 36.95 238.67 36.85 238.98 36.78 239.28 36.74 239.59 36.72 239.81 36.73 240.02 36.75 240.22 36.79 240.41 36.84 240.58 36.9 240.73 36.97 240.88 37.05 241.02 37.14 241.14 37.23 241.25 37.33 241.35 37.43 241.44 37.52 241.52 37.62 241.59 37.72 241.65 37.81 241.69 37.91 241.69 37.91 242.23 34.92 244.29 34.92 242.57 44.85 242.57 44.85 242.57 44.85"/><polyline class="cls-9" points="242.57 44.85 240.47 44.85 240.63 44.01 240.63 43.93 240.63 43.93 240.5 44.08 240.38 44.22 240.25 44.34 240.11 44.45 239.97 44.55 239.83 44.63 239.7 44.7 239.55 44.77 239.41 44.82 239.26 44.86 239.12 44.9 238.97 44.92 238.82 44.94 238.67 44.96 238.52 44.96 238.37 44.96 238.37 44.96 237.97 44.93 237.61 44.85 237.28 44.72 236.97 44.55 236.7 44.33 236.46 44.07 236.24 43.79 236.06 43.47 235.91 43.13 235.79 42.77 235.71 42.4 235.64 42.01 235.62 41.62 235.63 41.23 235.67 40.84 235.74 40.45 235.74 40.45 235.85 40.01 235.99 39.58 236.14 39.2 236.34 38.83 236.53 38.49 236.76 38.18 237 37.91 237.25 37.66 237.51 37.44 237.79 37.25 238.08 37.08 238.37 36.95 238.67 36.85 238.98 36.78 239.28 36.74 239.59 36.72 239.59 36.72 239.81 36.73 240.02 36.75 240.22 36.79 240.41 36.84 240.58 36.9 240.73 36.97 240.88 37.05 241.02 37.14 241.14 37.23 241.25 37.33 241.35 37.43 241.44 37.52 241.52 37.62 241.59 37.72 241.65 37.81 241.69 37.91 241.69 37.91 242.23 34.92 244.29 34.92 242.57 44.85"/><polygon class="cls-6" points="239.14 43.01 239.35 43 239.55 42.95 239.73 42.9 239.9 42.82 240.06 42.73 240.22 42.61 240.36 42.48 240.49 42.34 240.6 42.19 240.71 42.02 240.81 41.85 240.89 41.67 240.97 41.48 241.03 41.28 241.08 41.08 241.12 40.87 241.15 40.66 241.18 40.44 241.18 40.23 241.17 40.02 241.15 39.83 241.12 39.63 241.06 39.45 241 39.28 240.93 39.13 240.84 38.98 240.74 38.86 240.63 38.75 240.5 38.66 240.36 38.6 240.22 38.56 240.06 38.55 239.85 38.56 239.66 38.59 239.49 38.66 239.31 38.73 239.16 38.83 239.01 38.95 238.88 39.08 238.75 39.23 238.63 39.39 238.53 39.57 238.43 39.75 238.35 39.95 238.27 40.15 238.21 40.36 238.15 40.58 238.1 40.8 238.06 41.13 238.08 41.49 238.13 41.87 238.23 42.22 238.38 42.53 238.58 42.78 238.83 42.95 239.14 43.01 239.14 43.01 239.14 43.01"/><polygon class="cls-8" points="192.52 43.16 192.22 44.85 190.31 44.85 190.36 44.54 190.4 44.26 190.43 44.05 190.46 43.93 190.35 44.05 190.23 44.17 190.09 44.29 189.93 44.39 189.74 44.5 189.55 44.59 189.35 44.68 189.15 44.76 188.93 44.83 188.71 44.88 188.49 44.93 188.26 44.96 188.04 44.97 187.82 44.98 187.61 44.96 187.4 44.93 187.14 44.86 186.9 44.78 186.68 44.68 186.49 44.57 186.33 44.45 186.18 44.31 186.06 44.17 185.95 44.02 185.86 43.85 185.78 43.69 185.72 43.52 185.68 43.35 185.64 43.18 185.62 43.01 185.6 42.84 185.6 42.67 185.63 42.37 185.68 42.09 185.75 41.83 185.85 41.57 185.97 41.33 186.11 41.11 186.27 40.9 186.45 40.7 186.64 40.53 186.85 40.37 187.07 40.23 187.3 40.1 187.54 40 187.79 39.91 188.05 39.85 188.32 39.8 188.33 39.8 188.37 39.79 188.42 39.79 188.51 39.78 188.6 39.76 188.7 39.76 188.82 39.74 188.95 39.73 189.08 39.71 189.21 39.7 189.34 39.69 189.46 39.67 189.58 39.66 189.7 39.66 189.8 39.65 189.89 39.65 190.06 39.65 190.25 39.66 190.41 39.66 190.58 39.66 190.72 39.67 190.82 39.68 190.9 39.69 190.92 39.69 190.94 39.63 190.98 39.5 191.02 39.34 191.03 39.2 191 39.03 190.94 38.88 190.84 38.74 190.72 38.63 190.58 38.53 190.42 38.46 190.24 38.41 190.04 38.4 189.83 38.39 189.6 38.38 189.36 38.38 189.12 38.39 188.87 38.41 188.63 38.43 188.38 38.45 188.15 38.48 187.92 38.51 187.7 38.55 187.5 38.59 187.32 38.63 187.15 38.67 187.02 38.72 186.91 38.77 186.83 38.81 187.37 36.99 187.53 36.92 187.7 36.86 187.88 36.8 188.07 36.77 188.25 36.73 188.44 36.7 188.64 36.67 188.85 36.65 189.06 36.64 189.28 36.63 189.51 36.62 189.74 36.62 189.99 36.62 190.24 36.62 190.5 36.63 190.77 36.64 190.98 36.65 191.21 36.69 191.44 36.74 191.69 36.81 191.92 36.9 192.15 37.01 192.38 37.14 192.59 37.28 192.78 37.45 192.95 37.63 193.1 37.84 193.21 38.06 193.29 38.31 193.33 38.56 193.33 38.85 193.29 39.16 192.52 43.16 192.52 43.16 192.52 43.16"/><polyline class="cls-9" points="192.52 43.16 192.22 44.85 190.31 44.85 190.31 44.85 190.36 44.54 190.4 44.26 190.43 44.05 190.46 43.93 190.46 43.93 190.35 44.05 190.23 44.17 190.09 44.29 189.93 44.39 189.74 44.5 189.55 44.59 189.35 44.68 189.15 44.76 188.93 44.83 188.71 44.88 188.49 44.93 188.26 44.96 188.04 44.97 187.82 44.98 187.61 44.96 187.4 44.93 187.4 44.93 187.14 44.86 186.9 44.78 186.68 44.68 186.49 44.57 186.33 44.45 186.18 44.31 186.06 44.17 185.95 44.02 185.86 43.85 185.78 43.69 185.72 43.52 185.68 43.35 185.64 43.18 185.62 43.01 185.6 42.84 185.6 42.67 185.6 42.67 185.63 42.37 185.68 42.09 185.75 41.83 185.85 41.57 185.97 41.33 186.11 41.11 186.27 40.9 186.45 40.7 186.64 40.53 186.85 40.37 187.07 40.23 187.3 40.1 187.54 40 187.79 39.91 188.05 39.85 188.32 39.8 188.32 39.8 188.33 39.8 188.37 39.79 188.42 39.79 188.51 39.78 188.6 39.76 188.7 39.76 188.82 39.74 188.95 39.73 189.08 39.71 189.21 39.7 189.34 39.69 189.46 39.67 189.58 39.66 189.7 39.66 189.8 39.65 189.89 39.65 189.89 39.65 190.06 39.65 190.25 39.66 190.41 39.66 190.58 39.66 190.72 39.67 190.82 39.68 190.9 39.69 190.92 39.69 190.92 39.69 190.94 39.63 190.98 39.5 191.02 39.34 191.03 39.2 191.03 39.2 191 39.03 190.94 38.88 190.84 38.74 190.72 38.63 190.58 38.53 190.42 38.46 190.24 38.41 190.04 38.4 190.04 38.4 189.83 38.39 189.6 38.38 189.36 38.38 189.12 38.39 188.87 38.41 188.63 38.43 188.38 38.45 188.15 38.48 187.92 38.51 187.7 38.55 187.5 38.59 187.32 38.63 187.15 38.67 187.02 38.72 186.91 38.77 186.83 38.81 187.37 36.99 187.37 36.99 187.53 36.92 187.7 36.86 187.88 36.8 188.07 36.77 188.25 36.73 188.44 36.7 188.64 36.67 188.85 36.65 189.06 36.64 189.28 36.63 189.51 36.62 189.74 36.62 189.99 36.62 190.24 36.62 190.5 36.63 190.77 36.64 190.77 36.64 190.98 36.65 191.21 36.69 191.44 36.74 191.69 36.81 191.92 36.9 192.15 37.01 192.38 37.14 192.59 37.28 192.78 37.45 192.95 37.63 193.1 37.84 193.21 38.06 193.29 38.31 193.33 38.56 193.33 38.85 193.29 39.16 192.52 43.16"/><polygon class="cls-7" points="190.69 41.18 190.69 41.15 190.65 41.11 190.61 41.08 190.53 41.07 190.45 41.05 190.35 41.05 190.24 41.05 190.12 41.05 190 41.05 189.87 41.07 189.75 41.08 189.63 41.1 189.51 41.12 189.41 41.14 189.32 41.16 189.23 41.18 189.18 41.2 189.12 41.22 189.04 41.25 188.95 41.29 188.85 41.34 188.76 41.39 188.65 41.44 188.55 41.5 188.44 41.58 188.35 41.65 188.26 41.74 188.17 41.84 188.1 41.93 188.04 42.04 188 42.16 187.97 42.28 187.97 42.54 188.01 42.75 188.08 42.9 188.18 43.01 188.29 43.09 188.42 43.13 188.54 43.16 188.67 43.16 188.89 43.16 189.1 43.13 189.3 43.1 189.47 43.06 189.62 43.01 189.76 42.94 189.89 42.87 190.01 42.78 190.11 42.71 190.2 42.62 190.28 42.53 190.34 42.44 190.39 42.35 190.43 42.26 190.47 42.18 190.49 42.09 190.56 41.88 190.61 41.62 190.65 41.38 190.69 41.18 190.69 41.18 190.69 41.18"/><polygon class="cls-8" points="176.55 44.85 174.49 44.85 176.21 34.88 179.8 34.88 180.14 40.8 182.62 34.88 186.37 34.88 184.61 44.85 182.55 44.85 183.85 37.4 183.77 37.4 180.68 44.85 178.35 44.85 178.34 44.54 178.28 43.71 178.21 42.53 178.14 41.18 178.06 39.83 177.99 38.63 177.94 37.77 177.92 37.4 177.9 37.4 177.86 37.4 177.81 37.4 177.81 37.4 176.55 44.85 176.55 44.85 176.55 44.85"/><polyline class="cls-9" points="176.55 44.85 174.49 44.85 176.21 34.88 179.8 34.88 180.14 40.8 182.62 34.88 186.37 34.88 184.61 44.85 182.55 44.85 183.85 37.4 183.77 37.4 180.68 44.85 178.35 44.85 178.35 44.85 178.34 44.54 178.28 43.71 178.21 42.53 178.14 41.18 178.06 39.83 177.99 38.63 177.94 37.77 177.92 37.4 177.92 37.4 177.9 37.4 177.86 37.4 177.81 37.4 177.81 37.4 176.55 44.85"/><polygon class="cls-8" points="230.19 43.16 229.88 44.85 227.98 44.85 227.99 44.54 228 44.27 228 44.06 228.02 43.97 227.92 44.08 227.8 44.2 227.67 44.3 227.51 44.41 227.35 44.51 227.17 44.6 226.98 44.69 226.79 44.77 226.59 44.83 226.38 44.89 226.16 44.93 225.95 44.96 225.73 44.97 225.52 44.98 225.31 44.96 225.11 44.93 224.84 44.86 224.59 44.78 224.38 44.68 224.18 44.57 224.01 44.45 223.87 44.31 223.75 44.17 223.64 44.02 223.55 43.85 223.48 43.69 223.42 43.52 223.39 43.35 223.35 43.18 223.33 43.01 223.32 42.84 223.32 42.67 223.33 42.37 223.38 42.09 223.45 41.83 223.54 41.57 223.66 41.33 223.81 41.11 223.96 40.9 224.14 40.7 224.34 40.53 224.54 40.37 224.76 40.23 224.99 40.1 225.23 40 225.48 39.91 225.73 39.85 225.99 39.8 226 39.8 226.04 39.79 226.1 39.79 226.17 39.78 226.27 39.76 226.38 39.76 226.49 39.74 226.61 39.73 226.74 39.71 226.88 39.7 227.01 39.69 227.14 39.67 227.26 39.66 227.36 39.66 227.47 39.65 227.55 39.65 227.73 39.65 227.92 39.66 228.09 39.66 228.26 39.66 228.4 39.67 228.53 39.68 228.59 39.69 228.63 39.69 228.64 39.63 228.66 39.5 228.68 39.34 228.7 39.2 228.67 39.03 228.61 38.88 228.51 38.74 228.39 38.63 228.26 38.53 228.1 38.46 227.93 38.41 227.75 38.4 227.54 38.39 227.31 38.38 227.07 38.38 226.83 38.39 226.58 38.41 226.34 38.43 226.1 38.45 225.86 38.48 225.63 38.51 225.41 38.55 225.22 38.59 225.03 38.63 224.87 38.67 224.73 38.72 224.62 38.77 224.54 38.81 225.07 36.99 225.24 36.92 225.41 36.86 225.59 36.8 225.77 36.77 225.96 36.73 226.15 36.7 226.35 36.67 226.55 36.65 226.76 36.64 226.98 36.63 227.2 36.62 227.44 36.62 227.67 36.62 227.92 36.62 228.18 36.63 228.43 36.64 228.65 36.65 228.88 36.69 229.11 36.74 229.35 36.81 229.59 36.9 229.82 37.01 230.05 37.14 230.26 37.28 230.45 37.45 230.63 37.63 230.78 37.84 230.89 38.06 230.98 38.31 231.03 38.56 231.03 38.85 230.99 39.16 230.19 43.16 230.19 43.16 230.19 43.16"/><polygon class="cls-8" points="229.88 44.9 229.93 44.86 230.24 43.17 230.15 43.16 229.84 44.84 229.88 44.8 229.88 44.9 229.92 44.9 229.93 44.86 229.88 44.9 229.88 44.9 229.88 44.9"/><polygon class="cls-8" points="227.93 44.85 227.98 44.9 229.88 44.9 229.88 44.8 227.98 44.8 228.02 44.85 227.93 44.85 227.93 44.9 227.98 44.9 227.93 44.85 227.93 44.85 227.93 44.85"/><polygon class="cls-8" points="228.06 44 227.99 43.94 227.96 44.06 227.95 44.27 227.95 44.54 227.93 44.85 228.02 44.85 228.04 44.54 228.06 44.27 228.04 44.06 228.04 44 227.98 43.94 228.06 44 228.06 44 228.06 44"/><polygon class="cls-8" points="225.1 44.97 225.1 44.97 225.31 45 225.52 45.02 225.73 45.02 225.95 45 226.17 44.97 226.38 44.93 226.6 44.87 226.81 44.81 227 44.74 227.19 44.65 227.38 44.55 227.54 44.45 227.7 44.34 227.83 44.24 227.96 44.11 228.06 44 227.98 43.94 227.88 44.05 227.77 44.16 227.64 44.27 227.49 44.37 227.33 44.46 227.15 44.55 226.97 44.65 226.78 44.72 226.58 44.78 226.37 44.84 226.16 44.88 225.95 44.91 225.73 44.93 225.52 44.93 225.31 44.91 225.12 44.88 225.12 44.88 225.1 44.97 225.1 44.97 225.1 44.97"/><polygon class="cls-8" points="223.26 42.67 223.26 42.67 223.27 42.84 223.29 43.01 223.31 43.19 223.34 43.36 223.38 43.53 223.44 43.7 223.51 43.88 223.6 44.04 223.71 44.2 223.83 44.34 223.99 44.48 224.16 44.61 224.36 44.73 224.58 44.83 224.83 44.9 225.1 44.97 225.12 44.88 224.84 44.81 224.61 44.74 224.4 44.64 224.21 44.53 224.04 44.41 223.91 44.28 223.79 44.14 223.68 43.99 223.6 43.83 223.53 43.67 223.47 43.52 223.43 43.35 223.4 43.17 223.38 43.01 223.36 42.84 223.37 42.67 223.37 42.67 223.26 42.67 223.26 42.67 223.26 42.67"/><polygon class="cls-8" points="225.99 39.76 225.99 39.76 225.72 39.8 225.47 39.87 225.22 39.95 224.97 40.06 224.74 40.18 224.51 40.33 224.31 40.49 224.11 40.67 223.92 40.87 223.76 41.08 223.61 41.3 223.5 41.56 223.4 41.81 223.33 42.09 223.29 42.37 223.26 42.67 223.37 42.67 223.38 42.37 223.42 42.1 223.49 41.84 223.59 41.59 223.71 41.35 223.84 41.14 224 40.92 224.17 40.74 224.36 40.57 224.57 40.41 224.78 40.27 225.02 40.15 225.24 40.05 225.5 39.96 225.74 39.89 225.99 39.85 225.99 39.85 225.99 39.76 225.99 39.76 225.99 39.76"/><polygon class="cls-8" points="227.55 39.6 227.55 39.6 227.47 39.6 227.36 39.61 227.26 39.62 227.14 39.63 227.01 39.64 226.88 39.65 226.74 39.66 226.61 39.68 226.49 39.7 226.38 39.71 226.27 39.72 226.17 39.73 226.1 39.74 226.03 39.75 226 39.76 225.99 39.76 225.99 39.85 226 39.85 226.05 39.84 226.1 39.83 226.17 39.83 226.27 39.81 226.38 39.8 226.49 39.79 226.61 39.77 226.74 39.76 226.88 39.74 227.01 39.73 227.14 39.72 227.26 39.71 227.36 39.7 227.47 39.7 227.55 39.7 227.55 39.7 227.55 39.6 227.55 39.6 227.55 39.6"/><polygon class="cls-8" points="228.58 39.68 228.63 39.64 228.59 39.64 228.53 39.63 228.4 39.63 228.26 39.61 228.09 39.61 227.92 39.61 227.73 39.6 227.55 39.6 227.55 39.7 227.73 39.7 227.92 39.7 228.09 39.72 228.26 39.72 228.4 39.72 228.53 39.73 228.59 39.73 228.63 39.73 228.67 39.7 228.63 39.73 228.66 39.74 228.67 39.7 228.58 39.68 228.58 39.68 228.58 39.68"/><polygon class="cls-8" points="228.65 39.2 228.65 39.2 228.64 39.34 228.62 39.49 228.59 39.63 228.58 39.68 228.67 39.7 228.68 39.64 228.71 39.5 228.73 39.34 228.75 39.2 228.74 39.2 228.65 39.2 228.65 39.2 228.65 39.2"/><polygon class="cls-8" points="227.75 38.44 227.75 38.45 227.93 38.46 228.08 38.5 228.24 38.57 228.37 38.66 228.47 38.77 228.56 38.9 228.63 39.03 228.65 39.2 228.74 39.2 228.72 39.02 228.65 38.85 228.55 38.71 228.43 38.59 228.28 38.48 228.11 38.41 227.94 38.37 227.75 38.34 227.75 38.35 227.75 38.44 227.75 38.44 227.75 38.44"/><polygon class="cls-8" points="224.49 38.81 224.57 38.85 224.65 38.81 224.74 38.76 224.87 38.72 225.04 38.67 225.22 38.63 225.42 38.59 225.64 38.56 225.86 38.53 226.1 38.49 226.34 38.47 226.58 38.45 226.83 38.44 227.07 38.44 227.31 38.44 227.54 38.44 227.75 38.44 227.75 38.35 227.54 38.34 227.31 38.33 227.07 38.33 226.83 38.34 226.58 38.36 226.34 38.38 226.1 38.41 225.86 38.44 225.63 38.47 225.4 38.5 225.21 38.54 225.03 38.58 224.86 38.63 224.72 38.67 224.6 38.72 224.51 38.78 224.59 38.82 224.49 38.81 224.49 38.81 224.49 38.81"/><polygon class="cls-8" points="225.06 36.94 225.03 36.98 224.49 38.81 224.59 38.82 225.12 36.99 225.09 37.03 225.06 36.94 225.03 36.95 225.03 36.98 225.06 36.94 225.06 36.94 225.06 36.94"/><polygon class="cls-8" points="228.43 36.59 228.43 36.59 228.18 36.58 227.92 36.57 227.67 36.57 227.44 36.57 227.2 36.57 226.98 36.58 226.76 36.59 226.55 36.61 226.35 36.62 226.14 36.65 225.95 36.68 225.76 36.72 225.58 36.76 225.4 36.81 225.22 36.87 225.06 36.94 225.09 37.03 225.25 36.96 225.43 36.9 225.59 36.85 225.78 36.81 225.97 36.77 226.16 36.74 226.35 36.71 226.55 36.7 226.76 36.68 226.98 36.67 227.2 36.67 227.44 36.67 227.67 36.67 227.92 36.67 228.18 36.68 228.43 36.68 228.43 36.68 228.43 36.59 228.43 36.59 228.43 36.59"/><polygon class="cls-8" points="231.04 39.16 231.04 39.16 231.08 38.85 231.08 38.56 231.02 38.3 230.94 38.05 230.82 37.81 230.67 37.6 230.48 37.41 230.29 37.24 230.07 37.1 229.85 36.96 229.6 36.86 229.37 36.77 229.12 36.7 228.88 36.64 228.65 36.61 228.43 36.59 228.43 36.68 228.65 36.7 228.87 36.74 229.1 36.79 229.34 36.86 229.57 36.95 229.8 37.05 230.03 37.18 230.23 37.32 230.42 37.49 230.59 37.66 230.74 37.86 230.85 38.08 230.93 38.31 230.98 38.56 230.98 38.85 230.94 39.15 230.94 39.15 231.04 39.16 231.04 39.16 231.04 39.16"/><polygon class="cls-8" points="230.24 43.17 230.24 43.17 231.04 39.16 230.94 39.15 230.15 43.16 230.15 43.16 230.24 43.17 230.24 43.17 230.24 43.17"/><polygon class="cls-6" points="228.36 41.18 228.34 41.14 228.31 41.1 228.26 41.08 228.18 41.05 228.1 41.05 228 41.04 227.89 41.04 227.77 41.05 227.65 41.06 227.53 41.08 227.41 41.09 227.29 41.11 227.18 41.13 227.08 41.15 226.98 41.17 226.91 41.18 226.85 41.19 226.79 41.21 226.72 41.24 226.63 41.27 226.53 41.31 226.44 41.36 226.34 41.41 226.24 41.48 226.14 41.55 226.04 41.63 225.96 41.71 225.88 41.81 225.81 41.92 225.75 42.03 225.71 42.16 225.69 42.28 225.68 42.54 225.72 42.75 225.78 42.9 225.87 43.01 225.98 43.09 226.11 43.13 226.24 43.16 226.37 43.16 226.6 43.16 226.81 43.13 227.01 43.09 227.18 43.04 227.35 42.98 227.49 42.91 227.63 42.84 227.75 42.75 227.86 42.66 227.95 42.56 228.03 42.47 228.1 42.37 228.15 42.28 228.19 42.19 228.22 42.1 228.24 42.02 228.27 41.8 228.31 41.59 228.34 41.37 228.36 41.18 228.36 41.18 228.36 41.18"/><polygon class="cls-8" points="243.99 43.81 244.01 43.63 244.07 43.43 244.18 43.25 244.31 43.09 244.47 42.96 244.65 42.87 244.84 42.81 245.06 42.78 245.27 42.81 245.47 42.87 245.65 42.96 245.81 43.09 245.94 43.25 246.04 43.43 246.1 43.63 246.12 43.81 245.89 43.81 245.88 43.67 245.84 43.51 245.76 43.35 245.66 43.22 245.54 43.12 245.4 43.04 245.23 42.99 245.06 42.97 244.88 42.99 244.72 43.04 244.57 43.12 244.45 43.22 244.35 43.35 244.28 43.51 244.23 43.67 244.22 43.81 243.99 43.81 243.99 43.81 243.99 43.81"/><polygon class="cls-8" points="244.68 43.81 244.68 43.35 245.1 43.35 245.19 43.36 245.27 43.38 245.33 43.4 245.38 43.43 245.42 43.48 245.45 43.52 245.47 43.57 245.47 43.63 245.47 43.7 245.45 43.75 245.43 43.8 245.41 43.81 245.1 43.81 245.13 43.8 245.18 43.8 245.22 43.78 245.26 43.76 245.29 43.74 245.31 43.72 245.32 43.68 245.32 43.63 245.31 43.59 245.3 43.56 245.28 43.54 245.25 43.53 245.22 43.52 245.18 43.52 245.14 43.52 245.1 43.52 244.87 43.52 244.87 43.81 244.68 43.81 244.68 43.81 244.68 43.81"/><polygon class="cls-8" points="243.99 43.81 243.99 43.85 244.01 44.08 244.07 44.28 244.18 44.46 244.31 44.62 244.47 44.74 244.65 44.84 244.84 44.9 245.06 44.93 245.27 44.9 245.47 44.84 245.65 44.74 245.81 44.62 245.94 44.46 246.04 44.28 246.1 44.08 246.13 43.85 246.12 43.81 245.89 43.81 245.9 43.85 245.88 44.04 245.84 44.2 245.76 44.35 245.66 44.48 245.54 44.58 245.4 44.67 245.23 44.72 245.06 44.74 244.88 44.72 244.72 44.67 244.57 44.58 244.45 44.48 244.35 44.35 244.28 44.2 244.23 44.04 244.22 43.85 244.22 43.81 243.99 43.81 243.99 43.81 243.99 43.81"/><polygon class="cls-8" points="244.68 43.81 244.68 44.27 244.87 44.27 244.87 43.89 245.06 43.89 245.28 44.27 245.44 44.27 245.21 43.89 245.26 43.89 245.31 43.88 245.36 43.86 245.4 43.83 245.41 43.81 245.1 43.81 245.06 43.82 244.87 43.82 244.87 43.81 244.68 43.81 244.68 43.81 244.68 43.81"/><path class="cls-9" d="M244,43.86h0l0-.22.06-.21.11-.18.13-.16.15-.13.19-.09.19-.06.22,0h0l.21,0,.2.06.18.09.16.13.13.16.1.18.07.21,0,.22h0l0,.22-.07.2-.1.18-.13.15-.16.13-.18.1-.2.06-.21,0h0l-.22,0-.19-.06-.19-.1-.15-.13-.13-.15-.11-.18-.06-.2,0-.22m.88.41h-.19v-.92h.51l.08,0,.06,0,0,0,0,0,0,0,0,0v.06h0v.07l0,0,0,0,0,0,0,0-.05,0h-.1l.23.38h-.16l-.22-.38h-.19v.38m.19-.45h0l.06,0h.1l0,0,0,0,0,0v-.09h0v-.07l0,0h-.41v.31h.19m0,.92h0l.17,0,.17,0,.14-.09.12-.1.1-.13.08-.15,0-.16,0-.18h0l0-.19,0-.16-.08-.16-.1-.13-.12-.1L245.4,43l-.17,0-.17,0h0l-.18,0-.16,0-.15.08-.12.1-.1.13-.07.16-.05.16,0,.19h0l0,.18.05.16.07.15.1.13.12.1.15.09.16,0,.18,0"/><polygon class="cls-8" points="230.76 44.85 232.9 44.85 232.9 44.85 233.67 40.53 233.7 40.37 233.75 40.2 233.79 40.03 233.85 39.86 233.93 39.7 234.02 39.54 234.12 39.38 234.24 39.24 234.38 39.11 234.53 38.99 234.7 38.88 234.9 38.78 235.12 38.71 235.36 38.65 235.63 38.6 235.93 38.59 236.03 38.59 236.09 38.59 236.12 38.59 236.12 38.59 236.46 36.64 236.24 36.65 236.04 36.67 235.85 36.71 235.67 36.77 235.5 36.83 235.34 36.9 235.19 36.99 235.05 37.08 234.91 37.18 234.78 37.29 234.66 37.41 234.54 37.53 234.42 37.66 234.31 37.8 234.19 37.94 234.09 38.09 234.32 36.72 232.18 36.72 230.76 44.85 230.76 44.85 230.76 44.85 230.76 44.85"/><polyline class="cls-9" points="230.76 44.85 232.9 44.85 232.9 44.85 233.67 40.53 233.67 40.53 233.7 40.37 233.75 40.2 233.79 40.03 233.85 39.86 233.93 39.7 234.02 39.54 234.12 39.38 234.24 39.24 234.38 39.11 234.53 38.99 234.7 38.88 234.9 38.78 235.12 38.71 235.36 38.65 235.63 38.6 235.93 38.59 235.93 38.59 236.03 38.59 236.09 38.59 236.12 38.59 236.12 38.59 236.46 36.64 236.46 36.64 236.24 36.65 236.04 36.67 235.85 36.71 235.67 36.77 235.5 36.83 235.34 36.9 235.19 36.99 235.05 37.08 234.91 37.18 234.78 37.29 234.66 37.41 234.54 37.53 234.42 37.66 234.31 37.8 234.19 37.94 234.09 38.09 234.32 36.72 232.18 36.72 230.76 44.85 230.76 44.85"/><polygon class="cls-8" points="210.66 44.85 212.81 44.85 212.84 44.85 213.57 40.53 213.6 40.37 213.64 40.2 213.68 40.05 213.73 39.89 213.79 39.74 213.87 39.6 213.96 39.46 214.06 39.33 214.19 39.22 214.32 39.1 214.49 39.01 214.67 38.93 214.88 38.86 215.12 38.8 215.38 38.76 215.67 38.74 215.69 38.74 215.73 38.75 215.76 38.75 215.8 38.75 215.84 38.76 215.87 38.77 215.89 38.78 215.9 38.78 215.91 38.75 215.93 38.66 215.96 38.52 216 38.35 216.05 38.16 216.1 37.94 216.18 37.73 216.24 37.52 216.31 37.37 216.38 37.23 216.46 37.08 216.53 36.95 216.6 36.84 216.65 36.75 216.69 36.7 216.71 36.67 216.7 36.67 216.67 36.67 216.63 36.66 216.58 36.65 216.52 36.65 216.46 36.64 216.41 36.64 216.36 36.64 216.12 36.65 215.91 36.67 215.71 36.71 215.53 36.76 215.35 36.82 215.19 36.9 215.05 36.97 214.91 37.06 214.78 37.16 214.66 37.27 214.55 37.39 214.44 37.52 214.32 37.65 214.22 37.79 214.1 37.94 213.99 38.09 214.26 36.72 212.08 36.72 210.66 44.85 210.66 44.85 210.66 44.85 210.66 44.85"/><polyline class="cls-9" points="210.66 44.85 212.81 44.85 212.84 44.85 213.57 40.53 213.57 40.53 213.6 40.37 213.64 40.2 213.68 40.05 213.73 39.89 213.79 39.74 213.87 39.6 213.96 39.46 214.06 39.33 214.19 39.22 214.32 39.1 214.49 39.01 214.67 38.93 214.88 38.86 215.12 38.8 215.38 38.76 215.67 38.74 215.67 38.74 215.69 38.74 215.73 38.75 215.76 38.75 215.8 38.75 215.84 38.76 215.87 38.77 215.89 38.78 215.9 38.78 215.9 38.78 215.91 38.75 215.93 38.66 215.96 38.52 216 38.35 216.05 38.16 216.1 37.94 216.18 37.73 216.24 37.52 216.24 37.52 216.31 37.37 216.38 37.23 216.46 37.08 216.53 36.95 216.6 36.84 216.65 36.75 216.69 36.7 216.71 36.67 216.71 36.67 216.7 36.67 216.67 36.67 216.63 36.66 216.58 36.65 216.52 36.65 216.46 36.64 216.41 36.64 216.36 36.64 216.36 36.64 216.12 36.65 215.91 36.67 215.71 36.71 215.53 36.76 215.35 36.82 215.19 36.9 215.05 36.97 214.91 37.06 214.78 37.16 214.66 37.27 214.55 37.39 214.44 37.52 214.32 37.65 214.22 37.79 214.1 37.94 213.99 38.09 214.26 36.72 212.08 36.72 210.66 44.85 210.66 44.85"/><polygon class="cls-6" points="244.01 52.84 244.01 52.8 244.07 52.61 244.18 52.43 244.31 52.28 244.47 52.16 244.65 52.07 244.84 52.02 245.06 51.99 245.27 52.02 245.47 52.07 245.65 52.16 245.81 52.28 245.94 52.43 246.04 52.61 246.1 52.8 246.1 52.84 245.88 52.84 245.84 52.68 245.76 52.53 245.66 52.4 245.54 52.3 245.4 52.21 245.23 52.16 245.06 52.14 244.88 52.16 244.72 52.21 244.57 52.3 244.45 52.4 244.35 52.53 244.28 52.68 244.23 52.84 244.01 52.84 244.01 52.84 244.01 52.84"/><polygon class="cls-6" points="244.68 52.84 244.68 52.57 245.1 52.57 245.19 52.57 245.27 52.59 245.33 52.6 245.38 52.63 245.42 52.67 245.45 52.71 245.47 52.77 245.47 52.84 245.32 52.84 245.32 52.8 245.31 52.76 245.3 52.73 245.28 52.71 245.25 52.7 245.22 52.69 245.18 52.68 245.14 52.68 245.1 52.68 244.87 52.68 244.87 52.84 244.68 52.84 244.68 52.84 244.68 52.84"/><polygon class="cls-6" points="243.99 53 244.01 52.84 244.23 52.84 244.23 52.84 244.22 53 243.99 53 243.99 53 243.99 53"/><polygon class="cls-6" points="244.68 53 244.68 52.84 244.87 52.84 244.87 52.99 245.06 52.99 245.13 52.97 245.18 52.97 245.22 52.95 245.26 52.93 245.29 52.91 245.31 52.89 245.32 52.85 245.32 52.84 245.47 52.84 245.47 52.84 245.47 52.89 245.45 52.93 245.43 52.97 245.4 53 244.68 53 244.68 53 244.68 53"/><polygon class="cls-6" points="245.9 53 245.88 52.84 245.88 52.84 246.1 52.84 246.13 53 245.9 53 245.9 53 245.9 53"/><polygon class="cls-6" points="243.99 53 243.99 53.02 244.01 53.24 244.07 53.45 244.18 53.63 244.31 53.79 244.47 53.92 244.65 54.01 244.84 54.07 245.06 54.09 245.27 54.07 245.47 54.01 245.65 53.92 245.81 53.79 245.94 53.63 246.04 53.45 246.1 53.24 246.13 53.02 246.13 53 245.9 53 245.9 53.02 245.88 53.21 245.84 53.37 245.76 53.52 245.66 53.65 245.54 53.75 245.4 53.84 245.23 53.89 245.06 53.91 244.88 53.89 244.72 53.84 244.57 53.75 244.45 53.65 244.35 53.52 244.28 53.37 244.23 53.21 244.22 53.02 244.22 53 243.99 53 243.99 53 243.99 53"/><polygon class="cls-6" points="244.68 53 244.68 53.44 244.87 53.44 244.87 53.06 245.06 53.06 245.28 53.44 245.44 53.44 245.21 53.06 245.26 53.06 245.31 53.05 245.36 53.03 245.4 53 245.4 53 244.68 53 244.68 53 244.68 53"/><path class="cls-8" d="M210.9,39.14l-.06-.45-.11-.41-.15-.34-.19-.31-.23-.26-.25-.21-.27-.18-.3-.14-.3-.11-.31-.08-.31,0-.31,0h-.3l-.61,0-.55.09-.5.14-.44.19-.38.23-.33.25-.3.29-.24.31-.21.32-.18.33-.13.33-.12.32-.08.32-.06.3-.05.28,0,.24,0,.62,0,.56.08.51.13.45.18.4.22.35.26.31.3.26.32.22.34.19.36.15.37.11.38.09.38,0,.37,0h1.44l.16,0H209l.14,0,.13,0,.12,0,.12,0,.11,0,.12,0,.12,0,.12-.06.12-.06.31-1.87-.23.13-.21.12-.22.09-.21.08-.2.07-.22.05-.2,0-.21,0-.2,0h-.6l-.2,0-.2,0-.18,0-.2,0-.16,0-.15-.06-.15-.06-.14-.09-.13-.09-.12-.11-.12-.12-.1-.12-.1-.13-.08-.15-.06-.13,0-.15,0-.14,0-.15v-.13l0-.09h4.92l0-.47.11-.64.06-.57Zm-2.06.7h-2.77l0-.1,0-.16,0-.16.05-.15.07-.13.07-.13.09-.13.09-.11.1-.1.09-.1.12-.08.11-.07.13-.06.13,0,.13,0,.13,0h.29l.12,0,.13,0,.12,0,.11.06.12.07.09.07.09.1.08.1.08.11.05.14.05.14,0,.15,0,.17v.18Z"/><rect class="cls-10" x="736.14" width="125.43" height="78.39" rx="4.18"/><path class="cls-2" d="M801.86,42.76c7.08,0,13.55-5.78,13.55-12.85,0-7.74-6.47-13.08-13.55-13.08h-6.11a12.78,12.78,0,0,0-13.07,13.08,13,13,0,0,0,13.07,12.85Z"/><path class="cls-10" d="M798.48,36.79v-14a7.52,7.52,0,0,1,0,14m-10.22-7a7.55,7.55,0,0,1,4.83-7v14a7.53,7.53,0,0,1-4.83-7m7.52-11.87a11.87,11.87,0,1,0,11.87,11.87A11.87,11.87,0,0,0,795.78,17.9"/><path class="cls-2" d="M769.42,51.61c0,1,.76,1.18,1.43,1.18,3,0,3.93-2.24,3.93-4.28a4.12,4.12,0,0,0-4.29-4.41c-.56,0-.82,0-1.07,0Zm-1.34-6.43c0-1.24-.65-1.15-1.26-1.17v-.35c.53,0,1.08,0,1.62,0l2.37,0c3.55,0,5.48,2.37,5.48,4.79,0,1.36-.79,4.77-5.65,4.77l-2,0-1.84,0v-.35c.82-.08,1.22-.11,1.26-1Z"/><path class="cls-2" d="M778.24,44.85a.68.68,0,0,1,0-1.35.67.67,0,0,1,.67.66.69.69,0,0,1-.67.69m-1.47,8H777c.39,0,.66,0,.66-.45V48.7c0-.6-.21-.68-.71-1v-.22c.64-.19,1.41-.45,1.46-.49a.45.45,0,0,1,.25-.07c.07,0,.09.08.09.19v5.27c0,.45.3.45.69.45h.23v.35l-1.44,0-1.49,0Z"/><path class="cls-2" d="M781,48.78c0-.5-.15-.64-.79-.9v-.26A17.67,17.67,0,0,0,782,47s.08,0,.08.14V48a4,4,0,0,1,2.38-1c1.16,0,1.57.85,1.57,1.92v3.54c0,.45.3.45.69.45H787v.35l-1.45,0-1.48,0v-.35h.24c.39,0,.66,0,.66-.45V48.87c0-.79-.47-1.17-1.26-1.17a3.71,3.71,0,0,0-1.59.66v4.06c0,.45.31.45.69.45H783v.35l-1.45,0-1.48,0v-.35h.25c.38,0,.65,0,.65-.45Z"/><path class="cls-2" d="M790.45,49c.34,0,.38-.18.38-.34a1.16,1.16,0,0,0-1.19-1.26c-.83,0-1.41.62-1.57,1.6Zm-2.43.44a4.8,4.8,0,0,0,0,.8,2.3,2.3,0,0,0,2,2.37,2.63,2.63,0,0,0,1.85-.92l.19.19a3.2,3.2,0,0,1-2.53,1.55c-2.18,0-2.62-2.11-2.62-3,0-2.69,1.81-3.48,2.77-3.48A2.17,2.17,0,0,1,792,49.11a2.09,2.09,0,0,1,0,.25l-.12.08Z"/><path class="cls-2" d="M792.33,52.87h.37c.38,0,.66,0,.66-.45V48.56c0-.42-.51-.5-.72-.61v-.21c1-.42,1.55-.78,1.68-.78s.12,0,.12.18v1.23h0c.34-.53.92-1.41,1.75-1.41a.74.74,0,0,1,.78.73.66.66,0,0,1-.64.7c-.43,0-.43-.33-.91-.33a1.15,1.15,0,0,0-1,1.13v3.23c0,.45.28.45.66.45h.77v.35l-1.92,0-1.63,0Z"/><path class="cls-2" d="M797.61,51.32A1.79,1.79,0,0,0,799.33,53c.81,0,1.11-.49,1.11-1,0-1.62-3-1.1-3-3.31A1.88,1.88,0,0,1,799.58,47a3.5,3.5,0,0,1,1.56.4l.1,1.39h-.32a1.39,1.39,0,0,0-1.49-1.35,1,1,0,0,0-1.07.9c0,1.61,3.18,1.11,3.18,3.26,0,.91-.73,1.87-2.36,1.87a3.53,3.53,0,0,1-1.67-.47l-.15-1.57Z"/><path class="cls-2" d="M813.92,46.14h-.34c-.26-1.61-1.4-2.25-2.94-2.25s-3.87,1-3.87,4.34c0,2.77,2,4.76,4.09,4.76a2.79,2.79,0,0,0,2.76-2.37l.31.08-.31,2a7.68,7.68,0,0,1-3,.73,4.88,4.88,0,0,1-5.24-5.15,5,5,0,0,1,5.2-4.83,9.84,9.84,0,0,1,3.23.73Z"/><path class="cls-2" d="M814.41,52.87h.26c.39,0,.66,0,.66-.45V44.78c0-.89-.2-.92-.73-1.07v-.22A8.6,8.6,0,0,0,816,42.9a1.53,1.53,0,0,1,.3-.15c.08,0,.11.08.11.19v9.48c0,.45.3.45.68.45h.23v.35l-1.43,0-1.5,0Z"/><path class="cls-2" d="M823.21,52.47c0,.25.15.26.39.26h.55V53a13.79,13.79,0,0,0-2,.42l-.07,0V52.28a3.7,3.7,0,0,1-2.43,1.15,1.47,1.47,0,0,1-1.5-1.63V48.29c0-.36-.06-.7-.82-.77v-.26c.49,0,1.58-.09,1.76-.09s.16.09.16.39V51.1c0,.41,0,1.59,1.19,1.59a3.1,3.1,0,0,0,1.66-.84V48.17c0-.28-.66-.43-1.15-.56v-.25c1.23-.08,2-.19,2.13-.19s.11.09.11.24Z"/><path class="cls-2" d="M825.94,51.68a1.46,1.46,0,0,0,1.41,1.39c1.47,0,2.08-1.44,2.08-2.66a2.61,2.61,0,0,0-2.19-2.71,2.11,2.11,0,0,0-1.3.65Zm0-3.73a3.45,3.45,0,0,1,2-1,2.67,2.67,0,0,1,2.55,2.88,3.46,3.46,0,0,1-3.27,3.59,4.06,4.06,0,0,1-1.91-.48l-.41.32-.29-.15a16.53,16.53,0,0,0,.19-2.45V44.78c0-.89-.2-.92-.72-1.07v-.22a8.44,8.44,0,0,0,1.41-.59,1.53,1.53,0,0,1,.3-.15c.09,0,.11.08.11.19Z"/><path class="cls-2" d="M766.8,61.2h.11c.26,0,.55,0,.55-.43V56.86c0-.39-.29-.42-.55-.42h-.11v-.23l1.11,0,1.17,0v.23H769c-.26,0-.55,0-.55.42v3.91c0,.39.29.43.55.43h.11v.22l-1.18,0c-.37,0-.81,0-1.1,0Z"/><path class="cls-2" d="M769.05,61.39v-.16H769c-.26,0-.58,0-.58-.46V56.86c0-.41.32-.46.58-.46h.08v-.15l-1.14,0-1.08,0v.15h.08c.26,0,.58.05.58.46v3.91c0,.41-.32.46-.58.46h-.08v.16l1.07,0,1.15,0m0,.06-1.18,0c-.37,0-.8,0-1.1,0h0v-.29h.14c.27,0,.51,0,.51-.39V56.86c0-.36-.24-.39-.51-.39h-.14v-.29h0l1.11,0,1.17,0h0v.29H769c-.27,0-.52,0-.52.39v3.91c0,.36.25.39.52.39h.14v.29Z"/><path class="cls-2" d="M774.2,60l0,0V57.14a.62.62,0,0,0-.65-.7h-.17v-.23l1.05,0,.91,0v.23h-.11c-.31,0-.66.06-.66.94v3.4a6,6,0,0,0,0,.75h-.28l-3.84-4.28v3.07c0,.65.13.88.7.88h.13v.22c-.32,0-.64,0-1,0s-.67,0-1,0V61.2h.11c.51,0,.67-.36.67-1V57.11a.67.67,0,0,0-.68-.67h-.1v-.23c.28,0,.57,0,.86,0s.44,0,.66,0Z"/><path class="cls-2" d="M774.19,59.93Zm0,0,0,0Zm.15,1.55h.25a4.23,4.23,0,0,1,0-.72v-3.4c0-.89.37-1,.69-1h.08v-.15c-.29,0-.58,0-.88,0s-.68,0-1,0v.15h.13a.66.66,0,0,1,.68.74V60h0l0,0-3.32-3.75c-.22,0-.44,0-.66,0s-.56,0-.83,0v.15h.07a.71.71,0,0,1,.71.71v3.14c0,.59-.17,1-.7,1h-.08v.16l1,0c.32,0,.63,0,.93,0v-.16h-.09c-.59,0-.73-.26-.73-.91V57.17Zm.28.06h-.3l-3.79-4.22v3c0,.65.11.84.67.84h.16v.29h0c-.33,0-.65,0-1,0s-.67,0-1,0h0v-.29h.14c.49,0,.63-.32.64-.91V57.11a.65.65,0,0,0-.65-.64h-.13v-.29h0c.29,0,.58,0,.86,0s.44,0,.69,0l3.28,3.69V57.14c0-.6-.41-.67-.62-.67h-.2v-.29h0l1.05,0,.91,0h0v.29h-.15c-.31,0-.62,0-.63.91v3.4a5.7,5.7,0,0,0,0,.74v0Z"/><path class="cls-2" d="M776.48,56.59c-.56,0-.58.13-.69.67h-.22c0-.2.06-.41.09-.63s0-.42,0-.63h.18c.06.22.24.21.45.21h3.84c.21,0,.39,0,.41-.23l.18,0-.09.61c0,.2,0,.4,0,.6l-.22.08c0-.27-.06-.71-.56-.71h-1.22v4c0,.58.26.65.62.65h.14v.22l-1.21,0c-.45,0-1,0-1.26,0V61.2h.14c.41,0,.62,0,.62-.63v-4Z"/><path class="cls-2" d="M779.42,61.45l-1.21,0c-.45,0-1,0-1.26,0h0v-.29h.18c.41,0,.57,0,.58-.59v-4h-1.19v-.07h1.26v4c0,.6-.24.66-.65.66H777v.16c.29,0,.79,0,1.23,0l1.18,0v-.16h-.11c-.36,0-.65-.09-.65-.68v-4h1.26c.49,0,.56.43.58.71l.16-.06c0-.2,0-.39,0-.59s.05-.38.08-.57l-.11,0c0,.22-.25.23-.44.23h-3.88c-.18,0-.37,0-.44-.22h-.12a5.66,5.66,0,0,1,0,.6c0,.21-.06.4-.09.6h.16c.1-.52.16-.69.72-.68v.07c-.55,0-.54.1-.66.65v0h-.29v0c0-.21.07-.42.09-.63a4.46,4.46,0,0,0,0-.63v0h.24v0c.05.19.19.19.38.19h3.88c.21,0,.36,0,.38-.2v0h0l.21,0v0c0,.2-.06.4-.08.6s0,.4,0,.6v0h0l-.26.1V57.3c0-.28,0-.68-.52-.68h-1.2v3.93c0,.57.23.61.59.61h.17v.29Z"/><path class="cls-2" d="M781,61.2h.11c.27,0,.55,0,.55-.43V56.86c0-.39-.28-.42-.55-.42H781v-.23l1.86,0,1.91,0a10.84,10.84,0,0,0,0,1.14l-.23.06c0-.48-.12-.87-.91-.87h-1v2h.88c.45,0,.55-.26.59-.66h.23q0,.44,0,.87c0,.29,0,.57,0,.85l-.23,0c0-.45-.06-.74-.58-.74h-.89v1.74c0,.48.43.48.9.48.9,0,1.3-.06,1.52-.91l.21,0c-.1.4-.19.79-.25,1.19l-2,0c-.67,0-1.56,0-2,0Z"/><path class="cls-2" d="M785,61.39c.06-.38.15-.76.24-1.13l-.15,0c-.22.84-.65.91-1.53.9-.47,0-.94,0-.95-.51V58.84h.93c.52,0,.57.3.61.73l.16,0c0-.27,0-.54,0-.82s0-.56,0-.84h-.16c0,.39-.16.66-.62.66h-.92v-2h1.07c.78,0,.91.39.94.86l.16,0c0-.21,0-.48,0-.73s0-.25,0-.35l-1.88,0c-.61,0-1.37,0-1.82,0v.15h.07c.26,0,.58.05.58.46v3.91c0,.41-.32.46-.58.46H781v.16c.43,0,1.29,0,2,0l2,0m0,.06-2,0c-.67,0-1.56,0-2,0h0v-.29h.14c.27,0,.52,0,.52-.39V56.86c0-.36-.25-.39-.52-.39H781v-.29h0l1.86,0,1.91,0h0v0c0,.12,0,.25,0,.39s0,.54,0,.75v0h0l-.26.06v0c0-.49-.11-.84-.88-.85h-1v1.89h.85c.43,0,.51-.22.56-.62v0h.29v0c0,.29,0,.58,0,.87s0,.57,0,.85v0h0l-.26.06v0c0-.46,0-.7-.55-.71h-.86v1.71c0,.45.39.45.88.45.89,0,1.25-.05,1.48-.89v0h0l.24.06v0a12,12,0,0,0-.25,1.19v0Z"/><path class="cls-2" d="M787.2,58.73h.37c.74,0,1.14-.28,1.14-1.16a1,1,0,0,0-1.09-1.09,3.05,3.05,0,0,0-.42,0Zm-1-1.73c0-.54-.3-.56-.54-.56h-.13v-.23c.24,0,.7,0,1.16,0s.8,0,1.2,0c.94,0,1.77.26,1.77,1.32a1.41,1.41,0,0,1-1,1.31L790,60.75a.86.86,0,0,0,.73.45v.22c-.25,0-.49,0-.74,0l-.7,0A20.4,20.4,0,0,1,787.69,59h-.49v1.6c0,.57.27.6.61.6h.13v.22c-.42,0-.85,0-1.28,0s-.71,0-1.08,0V61.2h.13c.28,0,.54-.13.54-.41Z"/><path class="cls-2" d="M787.57,58.7c.73,0,1.1-.26,1.11-1.13a1,1,0,0,0-1.06-1.06,2.79,2.79,0,0,0-.39,0V58.7Zm-.37.07h0V56.48h0a3.05,3.05,0,0,1,.42,0,1.06,1.06,0,0,1,1.13,1.12c0,.89-.43,1.19-1.18,1.2Zm0,.2h.51v0a22.82,22.82,0,0,0,1.52,2.4l.7,0c.24,0,.47,0,.7,0v-.17a.87.87,0,0,1-.72-.45l-1.29-2h0a1.37,1.37,0,0,0,1-1.28c0-1-.81-1.28-1.74-1.28-.4,0-.76,0-1.2,0s-.88,0-1.13,0v.15h.1c.24,0,.57,0,.57.6v3.79c0,.3-.28.44-.57.44h-.1v.16c.36,0,.7,0,1,0s.84,0,1.25,0v-.16h-.1c-.34,0-.64,0-.64-.63V59Zm3.48,2.48c-.26,0-.49,0-.74,0s-.46,0-.72,0a22.42,22.42,0,0,1-1.55-2.4h-.44V60.6c0,.56.23.55.58.56H788v.29h0l-1.28,0c-.35,0-.71,0-1.08,0h0v-.29h.16c.27,0,.5-.11.5-.37V57c0-.53-.26-.52-.5-.53h-.16v-.29h0c.24,0,.7,0,1.16,0s.8,0,1.2,0c.94,0,1.8.26,1.81,1.35a1.42,1.42,0,0,1-1,1.32L790,60.73a.79.79,0,0,0,.7.43h0v.28Z"/><path class="cls-2" d="M795.74,60V57.14a.61.61,0,0,0-.65-.7h-.16v-.23c.35,0,.69,0,1,0s.6,0,.91,0v.23h-.11c-.31,0-.66.06-.66.94v3.4a6,6,0,0,0,0,.75h-.28l-3.84-4.28v3.07c0,.65.12.88.7.88h.13v.22l-1,0-1,0V61.2h.1c.52,0,.67-.36.67-1V57.11a.66.66,0,0,0-.67-.67h-.1v-.23l.85,0c.23,0,.44,0,.67,0Z"/><path class="cls-2" d="M795.72,59.93Zm0,0,0,0Zm.15,1.55h.24a5.58,5.58,0,0,1,0-.72v-3.4c0-.89.38-1,.7-1h.08v-.15l-.88,0c-.35,0-.68,0-1,0v.15h.13a.67.67,0,0,1,.69.74l0,2.82h0l0,0-3.32-3.75c-.22,0-.44,0-.67,0l-.82,0v.15H791a.71.71,0,0,1,.71.71v3.14c0,.6-.17,1-.71,1h-.07v.16c.32,0,.65,0,1,0s.62,0,.93,0v-.16h-.09c-.59,0-.74-.26-.74-.91V57.17Zm.28.06h-.31l-3.78-4.22v3c0,.65.1.84.67.84h.16v.29h0c-.32,0-.64,0-1,0l-1,0h0v-.29H791c.49,0,.64-.32.64-.91V57.11a.64.64,0,0,0-.64-.64h-.14v-.29h0l.85,0c.23,0,.44,0,.69,0l3.28,3.69V57.14c0-.6-.4-.67-.62-.67h-.19v-.29h0l1,0c.3,0,.6,0,.91,0h0v.29h-.15c-.31,0-.62,0-.63.91v3.4a6,6,0,0,0,0,.75v0Z"/><path class="cls-2" d="M799.19,57.05h0l-.7,2.11h1.4Zm-1.09,3.3a3.56,3.56,0,0,0-.16.58c0,.23.31.27.56.27h.08v.22c-.3,0-.6,0-.91,0l-.8,0V61.2h0a.67.67,0,0,0,.64-.49l1.2-3.42a6.58,6.58,0,0,0,.28-.93,3.83,3.83,0,0,0,.67-.32h.06a.07.07,0,0,1,.06,0l.06.19,1.37,3.9c.09.26.18.53.28.76a.48.48,0,0,0,.49.3h.05v.22c-.34,0-.67,0-1,0l-1.12,0V61.2H800c.17,0,.47,0,.47-.22a2.18,2.18,0,0,0-.16-.54l-.29-.86h-1.69Z"/><path class="cls-2" d="M799.16,57.06h0Zm-.63,2.07h1.3l-.65-2Zm-.09.06.71-2.17h0v0h0v0h0l.71,2.17ZM800,61.38l1.09,0,1,0v-.15h0a.51.51,0,0,1-.52-.32c-.1-.23-.19-.5-.28-.76l-1.37-3.9c0-.06,0-.13-.06-.18h-.07a3.12,3.12,0,0,1-.66.3,8.22,8.22,0,0,1-.28.93l-1.2,3.42a.7.7,0,0,1-.67.51h0v.15l.78,0,.86,0v-.15h0c-.25,0-.58,0-.59-.3a3.36,3.36,0,0,1,.16-.59h0l.25-.8h1.74l.29.89a2.11,2.11,0,0,1,.16.55c0,.23-.33.24-.5.25h0Zm2.12.07c-.34,0-.67,0-1,0l-1.12,0h0v-.29H800c.17,0,.43,0,.43-.18a2.22,2.22,0,0,0-.15-.53l-.28-.84h-1.65l-.23.75a3.81,3.81,0,0,0-.16.57c0,.19.28.23.53.23h.11v.29h0l-.9,0-.81,0h0v-.29h.08a.64.64,0,0,0,.61-.46l1.2-3.42a7.47,7.47,0,0,0,.29-1,3.63,3.63,0,0,0,.68-.32l.07,0a.09.09,0,0,1,.08,0c0,.06,0,.13.07.18l1.38,3.91a6.54,6.54,0,0,0,.27.75.43.43,0,0,0,.46.28h.08v.29Z"/><path class="cls-2" d="M802.41,56.59c-.56,0-.59.13-.7.67h-.22c0-.2.07-.41.09-.63a4.44,4.44,0,0,0,0-.63h.18c.06.22.25.21.45.21h3.85c.2,0,.39,0,.4-.23l.18,0c0,.2-.06.4-.08.61s0,.4,0,.6l-.22.08c0-.27-.05-.71-.55-.71h-1.23v4c0,.58.26.65.62.65h.14v.22l-1.21,0c-.45,0-1,0-1.26,0V61.2H803c.41,0,.62,0,.62-.63v-4Z"/><path class="cls-2" d="M805.34,61.45l-1.21,0c-.45,0-1,0-1.26,0h0v-.29H803c.41,0,.57,0,.59-.59v-4h-1.18v-.07h1.25v4c0,.6-.24.66-.65.66h-.11v.16c.29,0,.8,0,1.23,0l1.18,0v-.16h-.11c-.36,0-.65-.09-.65-.68v-4h1.26c.5,0,.56.43.58.71l.16-.06a5.82,5.82,0,0,1,0-.59c0-.19,0-.38.07-.57l-.11,0c0,.22-.25.23-.43.23h-3.89c-.17,0-.37,0-.43-.22h-.13a3.86,3.86,0,0,1,0,.6c0,.21-.06.41-.09.6h.16c.1-.52.17-.69.73-.68v.07c-.56,0-.54.1-.67.65v0h-.29v0c0-.21.06-.42.08-.63a3.35,3.35,0,0,0,.05-.63v0h.24v0c.06.19.19.19.38.19h3.89c.2,0,.36,0,.37-.2v0h0l.22,0v0c0,.2-.06.4-.08.6s0,.4,0,.6v0h0l-.26.1V57.3c0-.28-.05-.68-.52-.68h-1.19v3.93c0,.57.23.61.58.61h.18v.29Z"/><path class="cls-2" d="M807,61.2h.11c.27,0,.55,0,.55-.43V56.86c0-.39-.28-.42-.55-.42H807v-.23l1.11,0,1.17,0v.23h-.1c-.28,0-.56,0-.56.42v3.91c0,.39.28.43.56.43h.1v.22l-1.18,0c-.37,0-.8,0-1.1,0Z"/><path class="cls-2" d="M809.2,61.39v-.16h-.07c-.27,0-.59,0-.59-.46V56.86c0-.41.32-.46.59-.46h.07v-.15l-1.14,0c-.36,0-.78,0-1.07,0v.15h.07c.26,0,.58.05.58.46v3.91c0,.41-.32.46-.58.46H807v.16c.28,0,.7,0,1.06,0l1.15,0m0,.06-1.18,0-1.1,0h0v-.29h.14c.27,0,.52,0,.52-.39V56.86c0-.36-.25-.39-.52-.39h-.14v-.29h0l1.11,0,1.17,0h0v.29h-.13c-.28,0-.52,0-.53.39v3.91c0,.36.25.39.53.39h.13v.29Z"/><path class="cls-2" d="M812.32,61.2c1.44,0,1.7-1.27,1.7-2.36s-.59-2.41-1.83-2.41-1.69,1.16-1.69,2.16c0,1.34.61,2.61,1.82,2.61m-.12-5.1a2.62,2.62,0,0,1,2.86,2.58,2.73,2.73,0,0,1-2.82,2.85,2.63,2.63,0,0,1-2.79-2.68,2.71,2.71,0,0,1,2.75-2.75"/><path class="cls-2" d="M810.46,58.59c0-1,.4-2.19,1.73-2.19s1.86,1.34,1.86,2.44-.26,2.39-1.73,2.39v-.06c1.42,0,1.66-1.24,1.67-2.33s-.59-2.38-1.8-2.38-1.66,1.14-1.66,2.13c0,1.33.61,2.58,1.79,2.58v.06c-1.24,0-1.85-1.3-1.86-2.64m-1,.26a2.74,2.74,0,0,1,2.78-2.78v.06a2.69,2.69,0,0,0-2.72,2.72,2.61,2.61,0,0,0,2.76,2.65A2.7,2.7,0,0,0,815,58.67a2.59,2.59,0,0,0-2.83-2.54v-.06a2.65,2.65,0,0,1,2.89,2.6,2.77,2.77,0,0,1-2.85,2.89,2.67,2.67,0,0,1-2.82-2.71"/><path class="cls-2" d="M820.09,60V57.14a.61.61,0,0,0-.65-.7h-.16v-.23c.35,0,.69,0,1,0s.62,0,.92,0v.23h-.11c-.31,0-.66.06-.66.94v3.4a4.53,4.53,0,0,0,0,.75h-.28l-3.84-4.28v3.07c0,.65.12.88.7.88h.12v.22c-.32,0-.64,0-1,0s-.68,0-1,0V61.2h.1c.52,0,.67-.36.67-1V57.11a.66.66,0,0,0-.68-.67h-.09v-.23l.85,0c.23,0,.44,0,.67,0Z"/><path class="cls-2" d="M820.07,59.93Zm0,0,0,0Zm.15,1.55h.24a5.58,5.58,0,0,1,0-.72v-3.4c0-.89.38-1,.7-1h.08v-.15c-.3,0-.59,0-.89,0s-.67,0-1,0v.15h.13a.66.66,0,0,1,.68.74V60h0l0,0-3.32-3.75c-.22,0-.44,0-.67,0l-.82,0v.15h.06a.71.71,0,0,1,.71.71v3.14c0,.59-.16,1-.7,1h-.07v.16c.32,0,.65,0,1,0s.62,0,.93,0v-.16h-.1c-.58,0-.73-.26-.73-.91V57.17Zm.28.06h-.31l-3.78-4.22v3c0,.65.11.83.66.84h.16v.29h0c-.32,0-.64,0-1,0l-1,0h0v-.29h.14c.49,0,.64-.32.64-.91V57.11a.64.64,0,0,0-.65-.64h-.13v-.29h0l.85,0c.23,0,.44,0,.69,0l3.28,3.69V57.14c0-.6-.4-.67-.62-.67h-.19v-.29h0c.35,0,.7,0,1,0s.61,0,.92,0h0v.29h-.14c-.31,0-.63,0-.63.91v3.4a4.53,4.53,0,0,0,0,.75v0Z"/><path class="cls-2" d="M823.54,57.05h0l-.69,2.11h1.4Zm-1.09,3.3a3.56,3.56,0,0,0-.16.58c0,.23.31.27.56.27h.08v.22c-.3,0-.61,0-.91,0l-.8,0V61.2h0a.68.68,0,0,0,.65-.49l1.2-3.42a6.52,6.52,0,0,0,.27-.93,3.63,3.63,0,0,0,.68-.32h.06s0,0,0,0a1.46,1.46,0,0,1,.07.19l1.37,3.9c.09.26.18.53.28.76a.48.48,0,0,0,.49.3h0v.22c-.34,0-.68,0-1,0l-1.12,0V61.2h.08c.17,0,.46,0,.46-.22a2,2,0,0,0-.15-.54l-.29-.86h-1.69Z"/><path class="cls-2" d="M823.51,57.06h0Zm-.63,2.07h1.3l-.65-2Zm-.09.06L823.5,57h0v0h0v0h0l.71,2.17Zm1.52,2.2,1.09,0,1,0v-.15h0a.51.51,0,0,1-.52-.32c-.1-.23-.19-.5-.28-.76l-1.37-3.9-.06-.18h-.07a3.12,3.12,0,0,1-.66.3,8.22,8.22,0,0,1-.28.93l-1.2,3.42a.7.7,0,0,1-.68.51h0v.15l.77,0,.88,0v-.15h-.06c-.24,0-.58,0-.59-.3a3.6,3.6,0,0,1,.17-.59h0l.25-.8h1.74l.29.89a2,2,0,0,1,.15.55c0,.23-.32.24-.49.25h-.05Zm2.11.06c-.33,0-.67,0-1,0l-1.12,0h0v-.29h.11c.17,0,.43,0,.43-.18a2.22,2.22,0,0,0-.15-.53l-.28-.84h-1.65l-.23.75a3.81,3.81,0,0,0-.16.57c0,.19.28.23.52.23H823v.29h0l-.91,0-.8,0h0v-.29h.07a.64.64,0,0,0,.62-.46l1.2-3.42a9.53,9.53,0,0,0,.29-1,3.63,3.63,0,0,0,.68-.32l.07,0a.09.09,0,0,1,.08,0c0,.06,0,.13.07.18l1.37,3.91c.09.26.18.53.28.75a.43.43,0,0,0,.46.28h.08v.29Z"/><path class="cls-2" d="M828.31,60.69c0,.3.2.39.44.42a5.53,5.53,0,0,0,1,0,1,1,0,0,0,.71-.4,1.57,1.57,0,0,0,.23-.54h.22c-.08.43-.19.85-.27,1.27-.66,0-1.32,0-2,0s-1.32,0-2,0V61.2h.1c.27,0,.56,0,.56-.5V56.86c0-.39-.29-.42-.56-.42h-.1v-.23c.39,0,.78,0,1.18,0s.75,0,1.13,0v.23h-.19c-.28,0-.5,0-.5.4Z"/><path class="cls-2" d="M830.6,61.39c.08-.41.18-.8.26-1.21h-.15a1.9,1.9,0,0,1-.23.53,1.13,1.13,0,0,1-.74.41l-.57,0h-.42c-.25,0-.48-.13-.48-.45V56.84c0-.42.26-.44.54-.44H829v-.15c-.37,0-.73,0-1.1,0s-.77,0-1.15,0v.15h.07c.27,0,.59.05.59.46V60.7c0,.48-.32.53-.59.53h-.07v.16c.64,0,1.29,0,1.94,0s1.29,0,1.94,0m0,.06c-.66,0-1.32,0-2,0l-2,0h0v-.29h.13c.27,0,.53,0,.53-.46V56.86c0-.36-.26-.39-.53-.39h-.13v-.29h0c.4,0,.79,0,1.19,0s.75,0,1.13,0h0v.29h-.22c-.29,0-.47,0-.47.37v3.85c0,.28.18.35.41.38l.42,0,.56,0a1.05,1.05,0,0,0,.7-.39,1.61,1.61,0,0,0,.22-.53v0h.28v0c-.08.42-.18.84-.27,1.27v0Z"/><rect class="cls-11" x="294.46" width="125.43" height="78.39" rx="4.18"/><path class="cls-2" d="M333.37,37.37V36.12l-.6,1.25h-5.19L326.93,36v1.34h-9.71l-1.15-2.71h-1.94l-1.22,2.71h-5V29.18l3.69-8.35h7.06l1,2.36V20.85h8.64l1.9,4,1.85-4H359.3a4.66,4.66,0,0,1,2.37.64v-.64h6.87v.9a5.64,5.64,0,0,1,3.07-.9h12.12l1.07,2.4v-2.4h7.77l1.41,2.4v-2.4h7.42V37.39h-7.63L392,34.5v2.87h-9.48l-1.34-2.95h-1.86L378,37.37H372.3a7.46,7.46,0,0,1-3.74-1.17v1.17H357.13V33.51c0-.56-.43-.52-.43-.52h-.42v4.38Z"/><path class="cls-2" d="M327.67,41h15l2.16,2.45L347.07,41h11.54a5.44,5.44,0,0,1,2.12.57V41H371a5.28,5.28,0,0,1,2.4.65V41h13.21v.6a4.54,4.54,0,0,1,2.21-.6h8.61v.6a5.25,5.25,0,0,1,2.23-.6h6.76v15.6a3.73,3.73,0,0,1-2.73,1h-8.91v-.5a4.56,4.56,0,0,1-2.14.5H369v-4c0-.39-.17-.46-.53-.46h-.32v4.5h-7.4V53.09a5,5,0,0,1-2.19.44h-2.66v4h-9.12L344.68,55l-2.22,2.53H327.67Z"/><polygon class="cls-11" points="375 43.45 384.42 43.45 384.42 45.98 377.88 45.98 377.88 48.18 384.24 48.18 384.24 50.41 377.88 50.41 377.88 52.72 384.42 52.72 384.42 55.19 375 55.19 375 43.45"/><path class="cls-11" d="M402.62,48c3.55.18,3.84,1.95,3.84,3.84a3.43,3.43,0,0,1-3.69,3.38h-6.06V52.72h4.72c.8,0,2,0,2-1.12,0-.54-.21-.88-1.06-1-.38-.05-1.78-.13-2-.14-3.2-.08-3.95-1.67-3.95-3.61a3.24,3.24,0,0,1,3.44-3.4h6.05V46h-4.43c-1,0-2.09-.12-2.09,1,0,.72.53.87,1.22.93Z"/><path class="cls-11" d="M391.77,48c3.54.18,3.84,1.95,3.84,3.84a3.43,3.43,0,0,1-3.69,3.38h-6.06V52.72h4.72c.8,0,2,0,2-1.12,0-.54-.21-.88-1.06-1-.38-.05-1.78-.13-2-.14-3.2-.08-3.94-1.67-3.94-3.61a3.23,3.23,0,0,1,3.43-3.4h6.05V46h-4.43c-1,0-2.1-.12-2.1,1,0,.72.54.87,1.23.93Z"/><path class="cls-11" d="M357.6,43.47H347.48l-3.3,3.65L341,43.45H329.62V55.19h11l3.46-3.88,3.38,3.91H353v-4h3.88c1.5,0,4.22,0,4.22-4.17A3.25,3.25,0,0,0,357.6,43.47Zm-18.49,9.25h-6.65V50.41h6.36V48.18h-6.36V46h7l2.81,3.2Zm11,1.37L346,49.19l4.14-4.59Zm6.49-5.28H353V46h3.61a1.42,1.42,0,1,1,0,2.82Z"/><path class="cls-11" d="M371.52,49.87a3.22,3.22,0,0,0,2-3.25c0-2.52-2-3.14-3.46-3.14h-7.49V55.22h2.88V51.07h3.77c1,0,1.39,1,1.42,2l.07,2.15h2.81l-.1-2.42C373.41,50.92,372.88,50,371.52,49.87ZM369,48.65h-3.59V46H369a1.39,1.39,0,0,1,1.59,1.35C370.63,48.13,370.21,48.65,369,48.65Z"/><rect class="cls-11" x="363.71" y="23.18" width="2.88" height="11.75"/><polygon class="cls-11" points="340.12 23.19 349.54 23.19 349.54 25.72 343 25.72 343 27.93 349.35 27.93 349.35 30.15 343 30.15 343 32.47 349.54 32.47 349.54 34.94 340.12 34.94 340.12 23.19"/><path class="cls-11" d="M360.21,29.59a3.22,3.22,0,0,0,2-3.25c0-2.52-2-3.15-3.46-3.15h-7.49V34.93h2.88V30.79h3.77c1,0,1.39,1,1.42,2l.08,2.15h2.8l-.1-2.41C362.1,30.64,361.57,29.75,360.21,29.59Zm-2.49-1.22h-3.59V25.71h3.6a1.39,1.39,0,0,1,1.59,1.35C359.32,27.85,358.9,28.37,357.72,28.37Z"/><path class="cls-11" d="M333.47,23.19l-3.54,7.88-3.52-7.88h-4.52V34.5l-5-11.31H313L307.9,34.93h3l1.13-2.62h5.75L319,34.93h5.81V26.22l3.85,8.71h2.62l3.95-8.57v8.57h2.88V23.19Zm-20.31,6.59,1.72-4.1,1.79,4.1Z"/><path class="cls-11" d="M396.34,23.19v8.13l-4.86-8.13h-4.26v11l-4.91-11h-3.82l-4,9.1s-1.67,0-1.84,0c-.7-.15-1.78-.64-1.8-2.71v-.85c0-2.75,1.5-3,3.41-3h1.78V23.19h-3.76c-1.31,0-4.16,1-4.26,5.82-.07,3.25,1.35,5.93,4.55,5.93h3.8l1.12-2.62h5.75l1.15,2.62h5.68v-8.6l5.19,8.6h3.93V23.19Zm-17.71,6.6,1.72-4.11,1.81,4.11Z"/><rect class="cls-12" x="588.91" width="125.43" height="78.39" rx="4.18"/><path class="cls-13" d="M623.39,78.39h86.77a4.18,4.18,0,0,0,4.18-4.18V44.86C706,50.14,674.62,68.34,623.39,78.39Z"/><path class="cls-14" d="M653.16,33.09a6.15,6.15,0,0,0-6.26,6,6.25,6.25,0,1,0,6.26-6Z"/><path class="cls-15" d="M617.62,33.31h-3.36V45.05h3.35a6.16,6.16,0,0,0,4.19-1.35,6,6,0,0,0,2.12-4.51C623.92,35.72,621.34,33.31,617.62,33.31Zm2.68,8.82a4.34,4.34,0,0,1-3.14.93h-.61V35.3h.61a4.23,4.23,0,0,1,3.14,1,3.93,3.93,0,0,1,1.26,2.92A4,4,0,0,1,620.3,42.13Z"/><rect class="cls-15" x="624.98" y="33.31" width="2.29" height="11.74"/><path class="cls-15" d="M632.87,37.81c-1.38-.51-1.78-.84-1.78-1.47s.72-1.3,1.71-1.3a2.38,2.38,0,0,1,1.84.94l1.2-1.56a5.12,5.12,0,0,0-3.45-1.3,3.44,3.44,0,0,0-3.66,3.36c0,1.62.74,2.44,2.89,3.22a8.16,8.16,0,0,1,1.58.67,1.4,1.4,0,0,1,.69,1.21,1.67,1.67,0,0,1-1.78,1.65,2.71,2.71,0,0,1-2.5-1.56l-1.48,1.43a4.58,4.58,0,0,0,4.07,2.23,3.78,3.78,0,0,0,4-3.85C636.24,39.61,635.47,38.77,632.87,37.81Z"/><path class="cls-15" d="M637,39.19a6.07,6.07,0,0,0,6.19,6.12,6.31,6.31,0,0,0,2.87-.68v-2.7a3.65,3.65,0,0,1-2.76,1.29,3.84,3.84,0,0,1-3.95-4,3.9,3.9,0,0,1,3.84-4A3.84,3.84,0,0,1,646,36.46V33.77a5.82,5.82,0,0,0-2.81-.72A6.17,6.17,0,0,0,637,39.19Z"/><polygon class="cls-15" points="664.58 41.2 661.45 33.31 658.95 33.31 663.93 45.35 665.16 45.35 670.23 33.31 667.75 33.31 664.58 41.2"/><polygon class="cls-15" points="671.27 45.05 677.77 45.05 677.77 43.06 673.56 43.06 673.56 39.89 677.61 39.89 677.61 37.9 673.56 37.9 673.56 35.3 677.77 35.3 677.77 33.31 671.27 33.31 671.27 45.05"/><path class="cls-15" d="M686.83,36.78c0-2.2-1.51-3.47-4.15-3.47h-3.4V45.05h2.29V40.33h.3L685,45.05h2.81l-3.7-4.95A3.12,3.12,0,0,0,686.83,36.78Zm-4.6,1.93h-.66V35.16h.7c1.43,0,2.2.6,2.2,1.74S683.7,38.71,682.23,38.71Z"/><path class="cls-16" d="M688.44,34.19c0-.21-.14-.32-.39-.32h-.33v1H688v-.4l.28.4h.31l-.34-.43A.27.27,0,0,0,688.44,34.19Zm-.43.14h0v-.27h0c.13,0,.19,0,.19.13S688.13,34.33,688,34.33Z"/><path class="cls-16" d="M688.1,33.48a.91.91,0,0,0,0,1.81.91.91,0,0,0,0-1.81Zm0,1.64a.74.74,0,0,1,0-1.48.74.74,0,0,1,0,1.48Z"/></g></g></svg>