<?xml version="1.0" encoding="utf-8"?>
<!-- Generator: Adobe Illustrator 23.0.3, SVG Export Plug-In . SVG Version: 6.00 Build 0)  -->
<svg version="1.1" id="Layer_1" xmlns="http://www.w3.org/2000/svg" xmlns:xlink="http://www.w3.org/1999/xlink" x="0px" y="0px"
	 viewBox="0 0 61.4 61.4" style="enable-background:new 0 0 61.4 61.4;" xml:space="preserve">
<style type="text/css">
	.insta-cam{fill-rule:evenodd;clip-rule:evenodd;fill:#FFFFFF;}
</style>
<title>instagram</title>
<g>
	<defs>
		
			<ellipse id="SVGID_1_" transform="matrix(0.2954 -0.9554 0.9554 0.2954 -7.7001 50.9903)" cx="30.7" cy="30.7" rx="30.7" ry="30.7"/>
	</defs>
	<clipPath id="SVGID_2_">
		<use xlink:href="#SVGID_1_"  style="overflow:visible;"/>
	</clipPath>
	<g style="clip-path:url(#SVGID_2_);">
		<image style="overflow:visible;" width="63" height="63" xlink:href="67AEA9F8.png"  transform="matrix(1 0 0 1 -1 -0.56)">
		</image>
	</g>
</g>
<path class="insta-cam" d="M30.3,15.4c-3.8,0-4.4,0-6,0.1c-1.3,0-2.5,0.3-3.7,0.7c-2.1,0.8-3.7,2.4-4.5,4.5c-0.4,1.2-0.7,2.5-0.7,3.7
	c-0.1,1.6-0.1,2.2-0.1,6.3s0,4.7,0.1,6.3c0,1.3,0.3,2.5,0.7,3.7c0.8,2.1,2.4,3.7,4.5,4.5c1.2,0.4,2.5,0.7,3.7,0.7
	c1.6,0.1,2.2,0.1,6.3,0.1s4.7,0,6.3-0.1c1.3,0,2.5-0.3,3.7-0.7c2.1-0.8,3.7-2.4,4.5-4.5c0.5-1.2,0.7-2.5,0.7-3.7
	c0.1-1.6,0.1-2.1,0.1-6v-0.8c0-3.8,0-4.4-0.1-5.9c0-1.3-0.3-2.5-0.7-3.7c-0.8-2.1-2.4-3.7-4.5-4.5c-1.2-0.4-2.5-0.7-3.7-0.7
	c-1.6-0.1-2.1-0.1-6-0.1H30.3z M40.8,22.5c0,1-0.8,1.8-1.8,1.8s-1.8-0.8-1.8-1.8c0-1,0.8-1.8,1.8-1.8S40.8,21.5,40.8,22.5L40.8,22.5
	z M30.8,35.8c-2.8,0-5.1-2.3-5.1-5.1s2.3-5.1,5.1-5.1c2.8,0,5.1,2.3,5.1,5.1v0C35.9,33.5,33.6,35.8,30.8,35.8z M30.8,22.8
	c4.4,0,7.9,3.5,7.9,7.9s-3.5,7.9-7.9,7.9s-7.9-3.5-7.9-7.9l0,0C22.9,26.4,26.4,22.8,30.8,22.8z M30.8,18.1c4.1,0,4.6,0,6.2,0.1
	c1,0,1.9,0.2,2.8,0.5c1.3,0.5,2.4,1.6,2.9,2.9c0.3,0.9,0.5,1.9,0.5,2.9c0.1,1.6,0.1,2.1,0.1,6.2s0,4.6-0.1,6.2c0,1-0.2,1.9-0.5,2.8
	c-0.5,1.3-1.6,2.4-2.9,2.9c-0.9,0.3-1.9,0.5-2.8,0.5c-1.6,0.1-2.1,0.1-6.2,0.1s-4.6,0-6.2-0.1c-1,0-1.9-0.2-2.9-0.5
	c-1.3-0.5-2.4-1.6-2.9-2.9c-0.3-0.9-0.5-1.9-0.5-2.8c-0.1-1.6-0.1-2.1-0.1-6.2s0-4.6,0.1-6.2c0-1,0.2-1.9,0.5-2.9
	c0.5-1.3,1.6-2.4,2.9-2.9c0.9-0.3,1.9-0.5,2.9-0.5C26.1,18.1,26.6,18.1,30.8,18.1L30.8,18.1z"/>
</svg>
