<svg xmlns="http://www.w3.org/2000/svg" xmlns:xlink="http://www.w3.org/1999/xlink" viewBox="0 0 584.87 134.87"><defs><style>.cls-gradient{fill:url(#linear-gradient);}.cls-310{fill:#fed103;}.cls-31{fill:#1a1617;}</style><linearGradient id="linear-gradient" x1="-11.96" y1="113.37" x2="225.66" y2="22.66" gradientUnits="userSpaceOnUse"><stop offset="0" stop-color="#fed103"/><stop offset="1" stop-color="#f05523"/></linearGradient></defs><title>Asset 1</title><g id="UpLogo_1" data-name="UpLogo 1"><g id="CMYK"><path class="cls-gradient" d="M130.8,129.55c-3.08-4.07-4.57-9.7-4.57-17.21V59.16L93.18,6c-5.34-8.56-16.9-7.73-22.24.82L2.15,116.55c-5.35,8.56-.21,18.32,9.88,18.32H70.54L70.2,81.22l-9.69,4c-4.57,0-6.12-3-3.46-6.67L77.33,50.34c1.36-1.89,3.17-4.9,5-4.87s3.49,3,4.81,4.78L108,78.11c2.73,3.66,1.23,6.69-3.33,6.73l-7.62-3,.32,53H136.4A24.07,24.07,0,0,1,130.8,129.55Z"/><path class="cls-310" d="M317,30.84q1.75,2.25,1.76,6.75V50.13c0,2.93-.59,5.13-1.76,6.62a10.61,10.61,0,0,1-5,3.37H296.9a10.66,10.66,0,0,1-5-3.37c-1.17-1.49-1.76-3.69-1.76-6.62V41.57h6.1V52.65l2.59,2.48h11.26l2.62-2.48V35.12l-2.62-2.52L296.9,30.13a10.66,10.66,0,0,1-5-3.37q-1.75-2.24-1.76-6.62v-9.9q0-4.38,1.76-6.62a10.66,10.66,0,0,1,5-3.37H312a10.61,10.61,0,0,1,5,3.37q1.75,2.24,1.76,6.62V18.8h-6.06v-11l-2.62-2.51H298.81l-2.59,2.51V22.45L298.81,25,312,27.45A10.43,10.43,0,0,1,317,30.84Z"/><path class="cls-310" d="M349.17,44.65H332.45l-4.11,15.47h-5.08V56.87L339.18.25h3.22l16,56.62v3.25h-5.12Zm-15.37-5h14.06l-6.65-24.84h-.8Z"/><path class="cls-310" d="M369.43,32.68V60.12h-6.05V.25h25.15v5h-19.1V27.69h18.21v5Z"/><path class="cls-310" d="M395.87.25H421v5h-19.1V26.88h18.21v5H401.93V55.13h19.52v5H395.87Z"/><path class="cls-310" d="M444,5.25V60.12H437.9V5.25H425.75v-5h30.36v5Z"/><path class="cls-310" d="M473,60.12V33.94L458.46,3.5V.25h4.65L475.6,27h.81L488.94.25h4.7V3.5L479.08,33.78V60.12Z"/><path class="cls-310" d="M317,105.47q1.75,2.27,1.76,6.76v12.54q0,4.38-1.76,6.62a10.61,10.61,0,0,1-5,3.37H296.9a10.61,10.61,0,0,1-5-3.37q-1.75-2.23-1.76-6.62v-8.56h6.1v11.08l2.58,2.47h11.27l2.62-2.47V109.76l-2.62-2.52-13.17-2.48a10.54,10.54,0,0,1-5-3.37c-1.17-1.48-1.76-3.69-1.76-6.61v-9.9c0-2.93.59-5.13,1.76-6.62a10.61,10.61,0,0,1,5-3.37H312a10.61,10.61,0,0,1,5,3.37c1.17,1.49,1.76,3.69,1.76,6.62v8.56h-6.06v-11l-2.62-2.51H298.8l-2.58,2.51V97.09l2.58,2.52L312,102.09A10.49,10.49,0,0,1,317,105.47Z"/><path class="cls-310" d="M355.56,124.77q0,4.38-1.73,6.62a10.55,10.55,0,0,1-5,3.37H333.71a10.47,10.47,0,0,1-5-3.37q-1.74-2.23-1.74-6.62V84.88c0-2.93.58-5.13,1.74-6.62a10.47,10.47,0,0,1,5-3.37h15.12a10.55,10.55,0,0,1,5,3.37c1.15,1.49,1.73,3.69,1.73,6.62ZM349.51,82.4l-2.59-2.51h-11.3L333,82.4v44.89l2.58,2.47h11.3l2.59-2.47Z"/><path class="cls-310" d="M364.26,74.89h6.06v54.87h18.21v5H364.26Z"/><path class="cls-310" d="M399.77,127.29l2.58,2.47h11.31l2.58-2.47V74.89h6.05v49.88c0,2.92-.57,5.13-1.73,6.62a10.5,10.5,0,0,1-5,3.37H400.45a10.5,10.5,0,0,1-5-3.37q-1.74-2.23-1.74-6.62V74.89h6.06Z"/><path class="cls-310" d="M446.58,79.89v54.87h-6.06V79.89H428.37v-5h30.36v5Z"/><path class="cls-310" d="M463.49,134.76v-5h2.59V79.89h-2.59v-5h11.27v5h-2.59v49.87h2.59v5Z"/><path class="cls-310" d="M510.73,124.77q0,4.38-1.74,6.62a10.5,10.5,0,0,1-5,3.37H488.88a10.5,10.5,0,0,1-5-3.37q-1.74-2.23-1.74-6.62V84.88c0-2.93.58-5.13,1.74-6.62a10.5,10.5,0,0,1,5-3.37H504a10.5,10.5,0,0,1,5,3.37c1.16,1.49,1.74,3.69,1.74,6.62ZM504.67,82.4l-2.58-2.51H490.78L488.2,82.4v44.89l2.58,2.47h11.31l2.58-2.47Z"/><path class="cls-310" d="M542.38,74.89H548v59.87h-5.17L525.91,92.38h-.85v42.38h-5.63V74.89h5.2l16.9,42.41h.85Z"/><path class="cls-310" d="M583.11,105.47q1.75,2.27,1.76,6.76v12.54q0,4.38-1.76,6.62a10.61,10.61,0,0,1-5,3.37H563a10.61,10.61,0,0,1-5-3.37q-1.75-2.23-1.76-6.62v-8.56h6.1v11.08l2.58,2.47h11.27l2.62-2.47V109.76l-2.62-2.52L563,104.76a10.54,10.54,0,0,1-5-3.37c-1.17-1.48-1.76-3.69-1.76-6.61v-9.9c0-2.93.59-5.13,1.76-6.62a10.61,10.61,0,0,1,5-3.37h15.07a10.61,10.61,0,0,1,5,3.37c1.17,1.49,1.76,3.69,1.76,6.62v8.56h-6.06v-11l-2.62-2.51H564.92l-2.58,2.51V97.09l2.58,2.52,13.17,2.48A10.49,10.49,0,0,1,583.11,105.47Z"/><path class="cls-31" d="M161.37,108.59l1.83,1.91h7.5l1.92-1.91V.26h29.92V112.32q0,9.86-3.75,14.87A22.69,22.69,0,0,1,188,134.75H146a22.94,22.94,0,0,1-10.84-7.56q-3.81-5-3.8-14.87V.26h30Z"/><path class="cls-31" d="M236.65,88.07v46.68h-30V.26H265.1A23,23,0,0,1,276,7.83q3.8,5,3.79,14.86v43q0,9.84-3.79,14.86a23,23,0,0,1-10.85,7.57Zm0-63.47V63.81H247.9l1.83-1.91V26.43L247.9,24.6Z"/></g></g></svg>