<svg xmlns="http://www.w3.org/2000/svg" viewBox="0 0 9 8.14"><defs><style>.cls-0{fill:#fff;}</style></defs><title>Asset 2</title><g id="Layer_2" data-name="Layer 2"><g id="cart"><g id="icon"><path class="cls-0" d="M7.3,5.57H3.41a.85.85,0,0,1-.84-.76L1.39.86h-1A.43.43,0,0,1,0,.43.43.43,0,0,1,.43,0H1.71a.42.42,0,0,1,.41.31l1.29,4.3a.5.5,0,0,1,0,.12l3.87,0s0-.06,0-.09L8,2.14H4.71a.43.43,0,0,1,0-.85H8.57A.43.43,0,0,1,9,1.83l-.84,3A.85.85,0,0,1,7.3,5.57Z"/><circle class="cls-0" cx="3" cy="7.29" r="0.86"/><circle class="cls-0" cx="7.71" cy="7.29" r="0.86"/></g></g></g></svg>