<svg xmlns="http://www.w3.org/2000/svg" viewBox="0 0 61.44 61.44"><defs><style>.cls-13{fill:#ca2026;}.cls-2{fill:#fff;fill-rule:evenodd;}</style></defs><title>youtube</title><g id="Layer_2" data-name="Layer 2"><g id="Capa_1" data-name="Capa 1"><circle class="cls-13" cx="30.72" cy="30.72" r="30.72" transform="translate(-6.24 53.56) rotate(-76.72)"/><path class="cls-2" d="M45.79,23.81c-.26-2.24-.8-2.89-1.17-3.19a6.26,6.26,0,0,0-3.19-.74c-2.37-.16-6.37-.26-10.71-.26s-8.34.1-10.71.26a6.26,6.26,0,0,0-3.19.74c-.38.3-.91.95-1.18,3.19a86.17,86.17,0,0,0,0,13.82c.27,2.24.8,2.89,1.18,3.19a6.26,6.26,0,0,0,3.19.74c2.37.16,6.37.26,10.71.26s8.34-.1,10.71-.26a6.26,6.26,0,0,0,3.19-.74c.37-.3.91-1,1.17-3.19a83.91,83.91,0,0,0,0-13.82ZM27,35.55h0V25.89l9.27,4.83Z"/></g></g></svg>